<svg width="30" height="30" viewBox="0 0 30 30" fill="none" xmlns="http://www.w3.org/2000/svg">
<path d="M22.6172 3.10547C22.6172 3.42911 22.3549 3.69141 22.0312 3.69141C21.7076 3.69141 21.4453 3.42911 21.4453 3.10547C21.4453 2.78183 21.7076 2.51953 22.0312 2.51953C22.3549 2.51953 22.6172 2.78183 22.6172 3.10547Z" fill="#232323"/>
<path d="M22.0312 6.21094H7.96875C6.3533 6.21094 5.03906 7.52518 5.03906 9.14062V23.2031C5.03906 24.8186 6.3533 26.1328 7.96875 26.1328H13.8281C14.1518 26.1328 14.4141 25.8705 14.4141 25.5469V19.6875C14.4141 19.3639 14.1518 19.1016 13.8281 19.1016H12.0703V16.7578H13.8281C14.1518 16.7578 14.4141 16.4955 14.4141 16.1719V13.8281C14.4141 12.2127 15.7283 10.8984 17.3438 10.8984H20.2734V13.2422H17.9297C17.2836 13.2422 16.7578 13.7679 16.7578 14.4141V16.1719C16.7578 16.4955 17.0201 16.7578 17.3438 16.7578H20.1677L19.777 19.1016H17.3438C17.0201 19.1016 16.7578 19.3639 16.7578 19.6875V25.5469C16.7578 25.8705 17.0201 26.1328 17.3438 26.1328H22.0312C23.6467 26.1328 24.9609 24.8186 24.9609 23.2031V9.14062C24.9609 7.52518 23.6467 6.21094 22.0312 6.21094ZM23.7891 23.2031C23.7891 24.1724 23.0006 24.9609 22.0312 24.9609H17.9297V20.2734H20.2734C20.56 20.2734 20.8044 20.0663 20.8514 19.7839L21.4373 16.2682C21.4968 15.9123 21.2224 15.5859 20.8594 15.5859H17.9297V14.4141H20.8594C21.183 14.4141 21.4453 14.1518 21.4453 13.8281V10.3125C21.4453 9.98886 21.183 9.72656 20.8594 9.72656H17.3438C15.0822 9.72656 13.2422 11.5665 13.2422 13.8281V15.5859H11.4844C11.1607 15.5859 10.8984 15.8482 10.8984 16.1719V19.6875C10.8984 20.0111 11.1607 20.2734 11.4844 20.2734H13.2422V24.9609H7.96875C6.99944 24.9609 6.21094 24.1724 6.21094 23.2031V9.14062C6.21094 8.17131 6.99944 7.38281 7.96875 7.38281H22.0312C23.0006 7.38281 23.7891 8.17131 23.7891 9.14062V23.2031Z" fill="#232323"/>
<path d="M27.0703 0H2.92969C1.31424 0 0 1.31424 0 2.92969V27.0703C0 28.6858 1.31424 30 2.92969 30H27.0703C28.6858 30 30 28.6858 30 27.0703V2.92969C30 1.31424 28.6858 0 27.0703 0ZM28.8281 27.0703C28.8281 28.0396 28.0396 28.8281 27.0703 28.8281H2.92969C1.96037 28.8281 1.17188 28.0396 1.17188 27.0703V2.92969C1.17188 1.96037 1.96037 1.17188 2.92969 1.17188H27.0703C28.0396 1.17188 28.8281 1.96037 28.8281 2.92969V27.0703Z" fill="#232323"/>
<path d="M7.96875 3.69141H19.6875C20.0111 3.69141 20.2734 3.42911 20.2734 3.10547C20.2734 2.78183 20.0111 2.51953 19.6875 2.51953H7.96875C7.64511 2.51953 7.38281 2.78183 7.38281 3.10547C7.38281 3.42911 7.64511 3.69141 7.96875 3.69141Z" fill="#232323"/>
</svg>
