<svg width="667" height="369" viewBox="0 0 667 369" fill="none" xmlns="http://www.w3.org/2000/svg">
<rect x="109" y="316" width="315" height="3.00001" rx="1.50001" transform="rotate(-90 109 316)" fill="white"/>
<rect x="190" y="316" width="225" height="3.00001" rx="1.50001" transform="rotate(-90 190 316)" fill="white" fill-opacity="0.05"/>
<rect x="316" y="316" width="225" height="3.00001" rx="1.50001" transform="rotate(-90 316 316)" fill="white" fill-opacity="0.05"/>
<rect x="442" y="316" width="225" height="3.00001" rx="1.50001" transform="rotate(-90 442 316)" fill="white" fill-opacity="0.05"/>
<rect x="568" y="316" width="225" height="3.00001" rx="1.50001" transform="rotate(-90 568 316)" fill="white" fill-opacity="0.05"/>
<rect x="100" y="17.3206" width="20" height="3" rx="1.5" transform="rotate(-60 100 17.3206)" fill="white"/>
<rect width="20" height="3" rx="1.5" transform="matrix(-0.5 -0.866025 -0.866025 0.5 121.598 17.3206)" fill="white"/>
<rect x="649.5" y="304" width="20" height="3" rx="1.5" transform="rotate(30 649.5 304)" fill="white"/>
<rect width="20" height="3" rx="1.5" transform="matrix(0.866025 -0.5 -0.5 -0.866025 649.5 325.598)" fill="white"/>
<circle cx="110.5" cy="92.5002" r="5.5" fill="white"/>
<circle cx="110.5" cy="163.5" r="5.5" fill="white"/>
<circle cx="110.5" cy="234.5" r="5.5" fill="white"/>
<rect x="109" y="313" width="557" height="3" rx="1.5" fill="white"/>
<circle cx="191.5" cy="314.5" r="5.5" fill="white"/>
<circle cx="317.5" cy="314.5" r="5.5" fill="white"/>
<circle cx="443.5" cy="314.5" r="5.5" fill="white"/>
<circle cx="569.5" cy="314.5" r="5.5" fill="white"/>
<rect x="109" y="233" width="462" height="3" rx="1.5" fill="white"/>
<circle cx="191.5" cy="234.5" r="5.5" fill="white"/>
<circle cx="317.5" cy="234.5" r="5.5" fill="white"/>
<circle cx="443.5" cy="234.5" r="5.5" fill="white"/>
<circle cx="569.5" cy="234.5" r="5.5" fill="white"/>
<rect x="109" y="162" width="462" height="3" rx="1.5" fill="white"/>
<circle cx="191.5" cy="163.5" r="5.5" fill="white"/>
<circle cx="317.5" cy="163.5" r="5.5" fill="white"/>
<circle cx="443.5" cy="163.5" r="5.5" fill="white"/>
<circle cx="569.5" cy="163.5" r="5.5" fill="white"/>
<rect x="109" y="91.0002" width="462" height="3" rx="1.5" fill="white"/>
<circle cx="191.5" cy="92.5002" r="5.5" fill="white"/>
<circle cx="317.5" cy="92.5002" r="5.5" fill="white"/>
<circle cx="443.5" cy="92.5002" r="5.5" fill="white"/>
<circle cx="569.5" cy="92.5002" r="5.5" fill="white"/>
<path d="M61.5949 86.8002C63.0455 86.8002 64.1869 87.1469 65.0189 87.8402C65.8509 88.5336 66.2669 89.4882 66.2669 90.7042C66.2669 91.9202 65.8509 92.8749 65.0189 93.5682C64.1869 94.2616 63.0455 94.6082 61.5949 94.6082H58.8269V98.0002H57.2269V86.8002H61.5949ZM61.5469 93.2162C62.5602 93.2162 63.3335 93.0029 63.8669 92.5762C64.4002 92.1389 64.6669 91.5149 64.6669 90.7042C64.6669 89.8936 64.4002 89.2749 63.8669 88.8482C63.3335 88.4109 62.5602 88.1922 61.5469 88.1922H58.8269V93.2162H61.5469ZM76.1055 98.0002L73.6895 94.5602C73.3908 94.5816 73.1562 94.5922 72.9855 94.5922H70.2175V98.0002H68.6175V86.8002H72.9855C74.4362 86.8002 75.5775 87.1469 76.4095 87.8402C77.2415 88.5336 77.6575 89.4882 77.6575 90.7042C77.6575 91.5682 77.4442 92.3042 77.0175 92.9122C76.5908 93.5202 75.9828 93.9629 75.1935 94.2402L77.8495 98.0002H76.1055ZM72.9375 93.2322C73.9508 93.2322 74.7242 93.0136 75.2575 92.5762C75.7908 92.1389 76.0575 91.5149 76.0575 90.7042C76.0575 89.8936 75.7908 89.2749 75.2575 88.8482C74.7242 88.4109 73.9508 88.1922 72.9375 88.1922H70.2175V93.2322H72.9375ZM85.2985 98.1282C84.1678 98.1282 83.1492 97.8829 82.2425 97.3922C81.3358 96.8909 80.6212 96.2029 80.0985 95.3282C79.5865 94.4536 79.3305 93.4776 79.3305 92.4002C79.3305 91.3229 79.5865 90.3469 80.0985 89.4722C80.6212 88.5976 81.3358 87.9149 82.2425 87.4242C83.1492 86.9229 84.1678 86.6722 85.2985 86.6722C86.4185 86.6722 87.4318 86.9229 88.3385 87.4242C89.2452 87.9149 89.9545 88.5976 90.4665 89.4722C90.9785 90.3362 91.2345 91.3122 91.2345 92.4002C91.2345 93.4882 90.9785 94.4696 90.4665 95.3442C89.9545 96.2082 89.2452 96.8909 88.3385 97.3922C87.4318 97.8829 86.4185 98.1282 85.2985 98.1282ZM85.2985 96.7042C86.1198 96.7042 86.8558 96.5176 87.5065 96.1442C88.1678 95.7709 88.6852 95.2589 89.0585 94.6082C89.4425 93.9469 89.6345 93.2109 89.6345 92.4002C89.6345 91.5896 89.4425 90.8589 89.0585 90.2082C88.6852 89.5469 88.1678 89.0296 87.5065 88.6562C86.8558 88.2829 86.1198 88.0962 85.2985 88.0962C84.4772 88.0962 83.7305 88.2829 83.0585 88.6562C82.3972 89.0296 81.8745 89.5469 81.4905 90.2082C81.1172 90.8589 80.9305 91.5896 80.9305 92.4002C80.9305 93.2109 81.1172 93.9469 81.4905 94.6082C81.8745 95.2589 82.3972 95.7709 83.0585 96.1442C83.7305 96.5176 84.4772 96.7042 85.2985 96.7042Z" fill="white"/>
<path d="M75.7518 157.8L70.8398 169H69.2558L64.3277 157.8H66.0558L70.0878 167L74.1518 157.8H75.7518ZM77.18 157.8H78.78V169H77.18V157.8ZM86.5011 157.8C87.9518 157.8 89.0931 158.147 89.9251 158.84C90.7571 159.534 91.1731 160.488 91.1731 161.704C91.1731 162.92 90.7571 163.875 89.9251 164.568C89.0931 165.262 87.9518 165.608 86.5011 165.608H83.7331V169H82.1331V157.8H86.5011ZM86.4531 164.216C87.4665 164.216 88.2398 164.003 88.7731 163.576C89.3065 163.139 89.5731 162.515 89.5731 161.704C89.5731 160.894 89.3065 160.275 88.7731 159.848C88.2398 159.411 87.4665 159.192 86.4531 159.192H83.7331V164.216H86.4531Z" fill="white"/>
<path d="M7.627 240.128C6.507 240.128 5.49367 239.883 4.587 239.392C3.691 238.891 2.987 238.208 2.475 237.344C1.963 236.469 1.707 235.488 1.707 234.4C1.707 233.312 1.963 232.336 2.475 231.472C2.987 230.597 3.69633 229.915 4.603 229.424C5.50967 228.923 6.523 228.672 7.643 228.672C8.51767 228.672 9.31767 228.821 10.043 229.12C10.7683 229.408 11.387 229.84 11.899 230.416L10.859 231.424C10.0163 230.539 8.96567 230.096 7.707 230.096C6.875 230.096 6.123 230.283 5.451 230.656C4.779 231.029 4.251 231.547 3.867 232.208C3.49367 232.859 3.307 233.589 3.307 234.4C3.307 235.211 3.49367 235.947 3.867 236.608C4.251 237.259 4.779 237.771 5.451 238.144C6.123 238.517 6.875 238.704 7.707 238.704C8.955 238.704 10.0057 238.256 10.859 237.36L11.899 238.368C11.387 238.944 10.763 239.381 10.027 239.68C9.30167 239.979 8.50167 240.128 7.627 240.128ZM21.6744 230.192H17.8344V240H16.2664V230.192H12.4424V228.8H21.6744V230.192ZM30.3365 237.2H24.3845L23.1525 240H21.5045L26.5765 228.8H28.1605L33.2485 240H31.5685L30.3365 237.2ZM29.7765 235.92L27.3605 230.432L24.9445 235.92H29.7765ZM44.8135 228.8V240H43.2135V235.008H36.7815V240H35.1815V228.8H36.7815V233.616H43.2135V228.8H44.8135ZM58.8379 238.608V242.448H57.3499V240H48.1339L48.1179 242.448H46.6299L46.6459 238.608H47.1899C47.8939 238.565 48.3899 238.011 48.6779 236.944C48.9659 235.867 49.1419 234.352 49.2059 232.4L49.3179 228.8H57.1899V238.608H58.8379ZM50.6139 232.544C50.5605 234.123 50.4325 235.429 50.2299 236.464C50.0379 237.499 49.7232 238.213 49.2859 238.608H55.6059V230.192H50.6939L50.6139 232.544ZM68.3521 237.2H62.4001L61.1681 240H59.5201L64.5921 228.8H66.1761L71.2641 240H69.5841L68.3521 237.2ZM67.7921 235.92L65.3761 230.432L62.9601 235.92H67.7921ZM77.5651 228.8C79.0158 228.8 80.1571 229.147 80.9891 229.84C81.8211 230.533 82.2371 231.488 82.2371 232.704C82.2371 233.92 81.8211 234.875 80.9891 235.568C80.1571 236.261 79.0158 236.608 77.5651 236.608H74.7971V240H73.1971V228.8H77.5651ZM77.5171 235.216C78.5305 235.216 79.3038 235.003 79.8371 234.576C80.3705 234.139 80.6371 233.515 80.6371 232.704C80.6371 231.893 80.3705 231.275 79.8371 230.848C79.3038 230.411 78.5305 230.192 77.5171 230.192H74.7971V235.216H77.5171ZM91.7994 230.192H87.9594V240H86.3914V230.192H82.5674V228.8H91.7994V230.192Z" fill="white"/>
<path d="M166.969 346.152V350.072H164.883V348H156.693V338.2H158.947V346.152H163.315V338.2H165.569V346.152H166.969ZM175.522 344.262C175.522 344.29 175.508 344.486 175.48 344.85H169.782C169.885 345.317 170.128 345.685 170.51 345.956C170.893 346.227 171.369 346.362 171.938 346.362C172.33 346.362 172.676 346.306 172.974 346.194C173.282 346.073 173.567 345.886 173.828 345.634L174.99 346.894C174.281 347.706 173.245 348.112 171.882 348.112C171.033 348.112 170.282 347.949 169.628 347.622C168.975 347.286 168.471 346.824 168.116 346.236C167.762 345.648 167.584 344.981 167.584 344.234C167.584 343.497 167.757 342.834 168.102 342.246C168.457 341.649 168.938 341.187 169.544 340.86C170.16 340.524 170.846 340.356 171.602 340.356C172.34 340.356 173.007 340.515 173.604 340.832C174.202 341.149 174.668 341.607 175.004 342.204C175.35 342.792 175.522 343.478 175.522 344.262ZM171.616 342.008C171.122 342.008 170.706 342.148 170.37 342.428C170.034 342.708 169.829 343.091 169.754 343.576H173.464C173.39 343.1 173.184 342.722 172.848 342.442C172.512 342.153 172.102 342.008 171.616 342.008ZM177.196 340.468H179.366V343.408H182.642V340.468H184.826V348H182.642V345.186H179.366V348H177.196V340.468ZM189.843 340.356C191.01 340.356 191.906 340.636 192.531 341.196C193.157 341.747 193.469 342.582 193.469 343.702V348H191.425V347.062C191.015 347.762 190.249 348.112 189.129 348.112C188.551 348.112 188.047 348.014 187.617 347.818C187.197 347.622 186.875 347.351 186.651 347.006C186.427 346.661 186.315 346.269 186.315 345.83C186.315 345.13 186.577 344.579 187.099 344.178C187.631 343.777 188.448 343.576 189.549 343.576H191.285C191.285 343.1 191.141 342.736 190.851 342.484C190.562 342.223 190.128 342.092 189.549 342.092C189.148 342.092 188.751 342.157 188.359 342.288C187.977 342.409 187.65 342.577 187.379 342.792L186.595 341.266C187.006 340.977 187.496 340.753 188.065 340.594C188.644 340.435 189.237 340.356 189.843 340.356ZM189.675 346.642C190.049 346.642 190.38 346.558 190.669 346.39C190.959 346.213 191.164 345.956 191.285 345.62V344.85H189.787C188.891 344.85 188.443 345.144 188.443 345.732C188.443 346.012 188.551 346.236 188.765 346.404C188.989 346.563 189.293 346.642 189.675 346.642ZM206.821 340.468V348H204.637V342.26H201.501V348H199.331V340.468H206.821ZM213.353 340.356C214.053 340.356 214.688 340.519 215.257 340.846C215.836 341.163 216.289 341.616 216.615 342.204C216.942 342.783 217.105 343.459 217.105 344.234C217.105 345.009 216.942 345.69 216.615 346.278C216.289 346.857 215.836 347.309 215.257 347.636C214.688 347.953 214.053 348.112 213.353 348.112C212.392 348.112 211.636 347.809 211.085 347.202V350.716H208.901V340.468H210.987V341.336C211.529 340.683 212.317 340.356 213.353 340.356ZM212.975 346.32C213.535 346.32 213.993 346.133 214.347 345.76C214.711 345.377 214.893 344.869 214.893 344.234C214.893 343.599 214.711 343.095 214.347 342.722C213.993 342.339 213.535 342.148 212.975 342.148C212.415 342.148 211.953 342.339 211.589 342.722C211.235 343.095 211.057 343.599 211.057 344.234C211.057 344.869 211.235 345.377 211.589 345.76C211.953 346.133 212.415 346.32 212.975 346.32ZM218.636 340.468H220.806V344.948L224.474 340.468H226.476V348H224.306V343.52L220.652 348H218.636V340.468ZM140.692 357.986C141.411 357.986 142.041 358.135 142.582 358.434C143.123 358.723 143.539 359.134 143.828 359.666C144.127 360.198 144.276 360.814 144.276 361.514C144.276 362.233 144.099 362.872 143.744 363.432C143.399 363.983 142.913 364.412 142.288 364.72C141.663 365.019 140.953 365.168 140.16 365.168C138.844 365.168 137.808 364.748 137.052 363.908C136.305 363.059 135.932 361.817 135.932 360.184C135.932 358.672 136.259 357.468 136.912 356.572C137.575 355.667 138.587 355.074 139.95 354.794L143.534 354.08L143.828 355.956L140.664 356.586C139.805 356.754 139.166 357.034 138.746 357.426C138.335 357.818 138.093 358.373 138.018 359.092C138.345 358.737 138.737 358.467 139.194 358.28C139.651 358.084 140.151 357.986 140.692 357.986ZM140.174 363.474C140.734 363.474 141.182 363.292 141.518 362.928C141.863 362.564 142.036 362.102 142.036 361.542C142.036 360.973 141.863 360.52 141.518 360.184C141.182 359.848 140.734 359.68 140.174 359.68C139.605 359.68 139.147 359.848 138.802 360.184C138.457 360.52 138.284 360.973 138.284 361.542C138.284 362.111 138.461 362.578 138.816 362.942C139.171 363.297 139.623 363.474 140.174 363.474ZM150.196 357.356C150.896 357.356 151.531 357.519 152.1 357.846C152.679 358.163 153.131 358.616 153.458 359.204C153.785 359.783 153.948 360.459 153.948 361.234C153.948 362.009 153.785 362.69 153.458 363.278C153.131 363.857 152.679 364.309 152.1 364.636C151.531 364.953 150.896 365.112 150.196 365.112C149.235 365.112 148.479 364.809 147.928 364.202V367.716H145.744V357.468H147.83V358.336C148.371 357.683 149.16 357.356 150.196 357.356ZM149.818 363.32C150.378 363.32 150.835 363.133 151.19 362.76C151.554 362.377 151.736 361.869 151.736 361.234C151.736 360.599 151.554 360.095 151.19 359.722C150.835 359.339 150.378 359.148 149.818 359.148C149.258 359.148 148.796 359.339 148.432 359.722C148.077 360.095 147.9 360.599 147.9 361.234C147.9 361.869 148.077 362.377 148.432 362.76C148.796 363.133 149.258 363.32 149.818 363.32ZM159.007 365.112C158.213 365.112 157.499 364.949 156.865 364.622C156.239 364.286 155.749 363.824 155.395 363.236C155.04 362.648 154.863 361.981 154.863 361.234C154.863 360.487 155.04 359.82 155.395 359.232C155.749 358.644 156.239 358.187 156.865 357.86C157.499 357.524 158.213 357.356 159.007 357.356C159.8 357.356 160.509 357.524 161.135 357.86C161.76 358.187 162.25 358.644 162.605 359.232C162.959 359.82 163.137 360.487 163.137 361.234C163.137 361.981 162.959 362.648 162.605 363.236C162.25 363.824 161.76 364.286 161.135 364.622C160.509 364.949 159.8 365.112 159.007 365.112ZM159.007 363.32C159.567 363.32 160.024 363.133 160.379 362.76C160.743 362.377 160.925 361.869 160.925 361.234C160.925 360.599 160.743 360.095 160.379 359.722C160.024 359.339 159.567 359.148 159.007 359.148C158.447 359.148 157.985 359.339 157.621 359.722C157.257 360.095 157.075 360.599 157.075 361.234C157.075 361.869 157.257 362.377 157.621 362.76C157.985 363.133 158.447 363.32 159.007 363.32ZM164.639 357.468H166.809V360.408H170.085V357.468H172.269V365H170.085V362.186H166.809V365H164.639V357.468ZM181.682 361.262C181.682 361.29 181.668 361.486 181.64 361.85H175.942C176.044 362.317 176.287 362.685 176.67 362.956C177.052 363.227 177.528 363.362 178.098 363.362C178.49 363.362 178.835 363.306 179.134 363.194C179.442 363.073 179.726 362.886 179.988 362.634L181.15 363.894C180.44 364.706 179.404 365.112 178.042 365.112C177.192 365.112 176.441 364.949 175.788 364.622C175.134 364.286 174.63 363.824 174.276 363.236C173.921 362.648 173.744 361.981 173.744 361.234C173.744 360.497 173.916 359.834 174.262 359.246C174.616 358.649 175.097 358.187 175.704 357.86C176.32 357.524 177.006 357.356 177.762 357.356C178.499 357.356 179.166 357.515 179.764 357.832C180.361 358.149 180.828 358.607 181.164 359.204C181.509 359.792 181.682 360.478 181.682 361.262ZM177.776 359.008C177.281 359.008 176.866 359.148 176.53 359.428C176.194 359.708 175.988 360.091 175.914 360.576H179.624C179.549 360.1 179.344 359.722 179.008 359.442C178.672 359.153 178.261 359.008 177.776 359.008ZM190.905 365.112C190.102 365.112 189.379 364.949 188.735 364.622C188.1 364.286 187.601 363.824 187.237 363.236C186.882 362.648 186.705 361.981 186.705 361.234C186.705 360.487 186.882 359.82 187.237 359.232C187.601 358.644 188.1 358.187 188.735 357.86C189.379 357.524 190.102 357.356 190.905 357.356C191.698 357.356 192.389 357.524 192.977 357.86C193.574 358.187 194.008 358.658 194.279 359.274L192.585 360.184C192.193 359.493 191.628 359.148 190.891 359.148C190.321 359.148 189.85 359.335 189.477 359.708C189.103 360.081 188.917 360.59 188.917 361.234C188.917 361.878 189.103 362.387 189.477 362.76C189.85 363.133 190.321 363.32 190.891 363.32C191.637 363.32 192.202 362.975 192.585 362.284L194.279 363.208C194.008 363.805 193.574 364.272 192.977 364.608C192.389 364.944 191.698 365.112 190.905 365.112ZM202.832 361.262C202.832 361.29 202.818 361.486 202.79 361.85H197.092C197.195 362.317 197.437 362.685 197.82 362.956C198.203 363.227 198.679 363.362 199.248 363.362C199.64 363.362 199.985 363.306 200.284 363.194C200.592 363.073 200.877 362.886 201.138 362.634L202.3 363.894C201.591 364.706 200.555 365.112 199.192 365.112C198.343 365.112 197.591 364.949 196.938 364.622C196.285 364.286 195.781 363.824 195.426 363.236C195.071 362.648 194.894 361.981 194.894 361.234C194.894 360.497 195.067 359.834 195.412 359.246C195.767 358.649 196.247 358.187 196.854 357.86C197.47 357.524 198.156 357.356 198.912 357.356C199.649 357.356 200.317 357.515 200.914 357.832C201.511 358.149 201.978 358.607 202.314 359.204C202.659 359.792 202.832 360.478 202.832 361.262ZM198.926 359.008C198.431 359.008 198.016 359.148 197.68 359.428C197.344 359.708 197.139 360.091 197.064 360.576H200.774C200.699 360.1 200.494 359.722 200.158 359.442C199.822 359.153 199.411 359.008 198.926 359.008ZM210.54 359.26H206.676V365H204.506V357.468H210.54V359.26ZM214.911 365.112C214.118 365.112 213.404 364.949 212.769 364.622C212.144 364.286 211.654 363.824 211.299 363.236C210.944 362.648 210.767 361.981 210.767 361.234C210.767 360.487 210.944 359.82 211.299 359.232C211.654 358.644 212.144 358.187 212.769 357.86C213.404 357.524 214.118 357.356 214.911 357.356C215.704 357.356 216.414 357.524 217.039 357.86C217.664 358.187 218.154 358.644 218.509 359.232C218.864 359.82 219.041 360.487 219.041 361.234C219.041 361.981 218.864 362.648 218.509 363.236C218.154 363.824 217.664 364.286 217.039 364.622C216.414 364.949 215.704 365.112 214.911 365.112ZM214.911 363.32C215.471 363.32 215.928 363.133 216.283 362.76C216.647 362.377 216.829 361.869 216.829 361.234C216.829 360.599 216.647 360.095 216.283 359.722C215.928 359.339 215.471 359.148 214.911 359.148C214.351 359.148 213.889 359.339 213.525 359.722C213.161 360.095 212.979 360.599 212.979 361.234C212.979 361.869 213.161 362.377 213.525 362.76C213.889 363.133 214.351 363.32 214.911 363.32ZM228.876 363.208V366.624H226.846V365H221.554V366.624H219.524V363.208H219.832C220.298 363.199 220.62 362.923 220.798 362.382C220.975 361.841 221.087 361.071 221.134 360.072L221.232 357.468H227.798V363.208H228.876ZM223.108 360.226C223.08 360.991 223.019 361.617 222.926 362.102C222.842 362.587 222.678 362.956 222.436 363.208H225.614V359.26H223.15L223.108 360.226ZM230.25 357.468H232.42V360.408H235.696V357.468H237.88V365H235.696V362.186H232.42V365H230.25V357.468ZM246.663 357.468V365H244.717V362.844H243.107L241.679 365H239.355L241.077 362.536C240.554 362.331 240.153 362.037 239.873 361.654C239.602 361.262 239.467 360.791 239.467 360.24C239.467 359.353 239.784 358.672 240.419 358.196C241.063 357.711 241.945 357.468 243.065 357.468H246.663ZM243.107 359.246C242.64 359.246 242.286 359.33 242.043 359.498C241.81 359.666 241.693 359.937 241.693 360.31C241.693 360.683 241.805 360.959 242.029 361.136C242.262 361.304 242.612 361.388 243.079 361.388H244.717V359.246H243.107Z" fill="white"/>
<path d="M278.173 348.112C277.193 348.112 276.306 347.897 275.513 347.468C274.729 347.029 274.113 346.432 273.665 345.676C273.217 344.911 272.993 344.052 272.993 343.1C272.993 342.148 273.217 341.294 273.665 340.538C274.113 339.773 274.733 339.175 275.527 338.746C276.32 338.307 277.207 338.088 278.187 338.088C278.952 338.088 279.652 338.219 280.287 338.48C280.921 338.732 281.463 339.11 281.911 339.614L281.001 340.496C280.263 339.721 279.344 339.334 278.243 339.334C277.515 339.334 276.857 339.497 276.269 339.824C275.681 340.151 275.219 340.603 274.883 341.182C274.556 341.751 274.393 342.391 274.393 343.1C274.393 343.809 274.556 344.453 274.883 345.032C275.219 345.601 275.681 346.049 276.269 346.376C276.857 346.703 277.515 346.866 278.243 346.866C279.335 346.866 280.254 346.474 281.001 345.69L281.911 346.572C281.463 347.076 280.917 347.459 280.273 347.72C279.638 347.981 278.938 348.112 278.173 348.112ZM293.633 346.782V348H286.591V347.048L290.581 343.198C291.067 342.731 291.393 342.33 291.561 341.994C291.729 341.649 291.813 341.303 291.813 340.958C291.813 340.445 291.631 340.048 291.267 339.768C290.913 339.479 290.399 339.334 289.727 339.334C288.645 339.334 287.809 339.689 287.221 340.398L286.269 339.572C286.652 339.105 287.151 338.741 287.767 338.48C288.393 338.219 289.088 338.088 289.853 338.088C290.88 338.088 291.697 338.335 292.303 338.83C292.91 339.315 293.213 339.978 293.213 340.818C293.213 341.341 293.101 341.835 292.877 342.302C292.653 342.769 292.229 343.301 291.603 343.898L288.607 346.782H293.633ZM298.747 348.112C297.973 348.112 297.282 347.916 296.675 347.524C296.078 347.123 295.607 346.544 295.261 345.788C294.916 345.032 294.743 344.136 294.743 343.1C294.743 342.064 294.916 341.168 295.261 340.412C295.607 339.656 296.078 339.082 296.675 338.69C297.282 338.289 297.973 338.088 298.747 338.088C299.513 338.088 300.194 338.289 300.791 338.69C301.398 339.082 301.874 339.656 302.219 340.412C302.565 341.168 302.737 342.064 302.737 343.1C302.737 344.136 302.565 345.032 302.219 345.788C301.874 346.544 301.398 347.123 300.791 347.524C300.194 347.916 299.513 348.112 298.747 348.112ZM298.747 346.866C299.531 346.866 300.157 346.544 300.623 345.9C301.099 345.256 301.337 344.323 301.337 343.1C301.337 341.877 301.099 340.944 300.623 340.3C300.157 339.656 299.531 339.334 298.747 339.334C297.954 339.334 297.319 339.656 296.843 340.3C296.377 340.944 296.143 341.877 296.143 343.1C296.143 344.323 296.377 345.256 296.843 345.9C297.319 346.544 297.954 346.866 298.747 346.866ZM311.117 340.51C312.144 340.51 312.928 340.762 313.469 341.266C314.02 341.77 314.295 342.521 314.295 343.52V348H313.021V347.02C312.797 347.365 312.475 347.631 312.055 347.818C311.644 347.995 311.154 348.084 310.585 348.084C309.754 348.084 309.087 347.883 308.583 347.482C308.088 347.081 307.841 346.553 307.841 345.9C307.841 345.247 308.079 344.724 308.555 344.332C309.031 343.931 309.787 343.73 310.823 343.73H312.951V343.464C312.951 342.885 312.783 342.442 312.447 342.134C312.111 341.826 311.616 341.672 310.963 341.672C310.524 341.672 310.095 341.747 309.675 341.896C309.255 342.036 308.9 342.227 308.611 342.47L308.051 341.462C308.434 341.154 308.891 340.921 309.423 340.762C309.955 340.594 310.52 340.51 311.117 340.51ZM310.809 347.048C311.322 347.048 311.766 346.936 312.139 346.712C312.512 346.479 312.783 346.152 312.951 345.732V344.696H310.879C309.74 344.696 309.171 345.079 309.171 345.844C309.171 346.217 309.316 346.511 309.605 346.726C309.894 346.941 310.296 347.048 310.809 347.048ZM323.589 340.58V348H322.245V341.756H318.059V348H316.715V340.58H323.589ZM330.124 340.51C330.842 340.51 331.486 340.669 332.056 340.986C332.625 341.303 333.068 341.747 333.386 342.316C333.712 342.885 333.876 343.543 333.876 344.29C333.876 345.037 333.712 345.699 333.386 346.278C333.068 346.847 332.625 347.291 332.056 347.608C331.486 347.925 330.842 348.084 330.124 348.084C329.592 348.084 329.102 347.981 328.654 347.776C328.215 347.571 327.842 347.272 327.534 346.88V350.716H326.19V340.58H327.478V341.756C327.776 341.345 328.154 341.037 328.612 340.832C329.069 340.617 329.573 340.51 330.124 340.51ZM330.012 346.908C330.488 346.908 330.912 346.801 331.286 346.586C331.668 346.362 331.967 346.054 332.182 345.662C332.406 345.261 332.518 344.803 332.518 344.29C332.518 343.777 332.406 343.324 332.182 342.932C331.967 342.531 331.668 342.223 331.286 342.008C330.912 341.793 330.488 341.686 330.012 341.686C329.545 341.686 329.12 341.798 328.738 342.022C328.364 342.237 328.066 342.54 327.842 342.932C327.627 343.324 327.52 343.777 327.52 344.29C327.52 344.803 327.627 345.261 327.842 345.662C328.056 346.054 328.355 346.362 328.738 346.586C329.12 346.801 329.545 346.908 330.012 346.908ZM342.534 344.332C342.534 344.435 342.525 344.57 342.506 344.738H336.486C336.57 345.391 336.855 345.919 337.34 346.32C337.835 346.712 338.446 346.908 339.174 346.908C340.061 346.908 340.775 346.609 341.316 346.012L342.058 346.88C341.722 347.272 341.302 347.571 340.798 347.776C340.304 347.981 339.748 348.084 339.132 348.084C338.348 348.084 337.653 347.925 337.046 347.608C336.44 347.281 335.968 346.829 335.632 346.25C335.306 345.671 335.142 345.018 335.142 344.29C335.142 343.571 335.301 342.923 335.618 342.344C335.945 341.765 336.388 341.317 336.948 341C337.518 340.673 338.157 340.51 338.866 340.51C339.576 340.51 340.206 340.673 340.756 341C341.316 341.317 341.75 341.765 342.058 342.344C342.376 342.923 342.534 343.585 342.534 344.332ZM338.866 341.644C338.222 341.644 337.681 341.84 337.242 342.232C336.813 342.624 336.561 343.137 336.486 343.772H341.246C341.172 343.147 340.915 342.638 340.476 342.246C340.047 341.845 339.51 341.644 338.866 341.644ZM350.866 340.58V348H349.522V341.756H346.33L346.246 343.408C346.2 344.407 346.111 345.242 345.98 345.914C345.85 346.577 345.635 347.109 345.336 347.51C345.038 347.911 344.622 348.112 344.09 348.112C343.848 348.112 343.572 348.07 343.264 347.986L343.348 346.852C343.47 346.88 343.582 346.894 343.684 346.894C344.058 346.894 344.338 346.731 344.524 346.404C344.711 346.077 344.832 345.69 344.888 345.242C344.944 344.794 344.996 344.155 345.042 343.324L345.168 340.58H350.866ZM359.415 340.58V348H358.211V345.648H356.055H355.901L354.277 348H352.835L354.641 345.466C354.081 345.298 353.652 345.023 353.353 344.64C353.054 344.248 352.905 343.763 352.905 343.184C352.905 342.335 353.194 341.691 353.773 341.252C354.352 340.804 355.15 340.58 356.167 340.58H359.415ZM354.277 343.226C354.277 343.721 354.431 344.089 354.739 344.332C355.056 344.565 355.528 344.682 356.153 344.682H358.211V341.756H356.209C354.921 341.756 354.277 342.246 354.277 343.226Z" fill="white"/>
<path d="M405.001 348.112C404.021 348.112 403.134 347.897 402.341 347.468C401.557 347.029 400.941 346.432 400.493 345.676C400.045 344.911 399.821 344.052 399.821 343.1C399.821 342.148 400.045 341.294 400.493 340.538C400.941 339.773 401.561 339.175 402.355 338.746C403.148 338.307 404.035 338.088 405.015 338.088C405.78 338.088 406.48 338.219 407.115 338.48C407.749 338.732 408.291 339.11 408.739 339.614L407.829 340.496C407.091 339.721 406.172 339.334 405.071 339.334C404.343 339.334 403.685 339.497 403.097 339.824C402.509 340.151 402.047 340.603 401.711 341.182C401.384 341.751 401.221 342.391 401.221 343.1C401.221 343.809 401.384 344.453 401.711 345.032C402.047 345.601 402.509 346.049 403.097 346.376C403.685 346.703 404.343 346.866 405.071 346.866C406.163 346.866 407.082 346.474 407.829 345.69L408.739 346.572C408.291 347.076 407.745 347.459 407.101 347.72C406.466 347.981 405.766 348.112 405.001 348.112ZM420.461 346.782V348H413.419V347.048L417.409 343.198C417.895 342.731 418.221 342.33 418.389 341.994C418.557 341.649 418.641 341.303 418.641 340.958C418.641 340.445 418.459 340.048 418.095 339.768C417.741 339.479 417.227 339.334 416.555 339.334C415.473 339.334 414.637 339.689 414.049 340.398L413.097 339.572C413.48 339.105 413.979 338.741 414.595 338.48C415.221 338.219 415.916 338.088 416.681 338.088C417.708 338.088 418.525 338.335 419.131 338.83C419.738 339.315 420.041 339.978 420.041 340.818C420.041 341.341 419.929 341.835 419.705 342.302C419.481 342.769 419.057 343.301 418.431 343.898L415.435 346.782H420.461ZM424.79 338.088C426.106 338.088 427.119 338.513 427.828 339.362C428.547 340.211 428.906 341.415 428.906 342.974C428.906 344.066 428.71 344.999 428.318 345.774C427.936 346.539 427.394 347.123 426.694 347.524C426.004 347.916 425.196 348.112 424.272 348.112C423.796 348.112 423.348 348.065 422.928 347.972C422.508 347.869 422.144 347.725 421.836 347.538L422.368 346.446C422.844 346.754 423.474 346.908 424.258 346.908C425.276 346.908 426.069 346.595 426.638 345.97C427.217 345.335 427.506 344.416 427.506 343.212V342.862C427.226 343.282 426.839 343.604 426.344 343.828C425.85 344.043 425.294 344.15 424.678 344.15C424.034 344.15 423.456 344.029 422.942 343.786C422.438 343.543 422.042 343.198 421.752 342.75C421.472 342.293 421.332 341.77 421.332 341.182C421.332 340.566 421.482 340.025 421.78 339.558C422.088 339.091 422.504 338.732 423.026 338.48C423.549 338.219 424.137 338.088 424.79 338.088ZM424.916 343.016C425.355 343.016 425.747 342.932 426.092 342.764C426.438 342.596 426.704 342.367 426.89 342.078C427.086 341.789 427.184 341.467 427.184 341.112C427.184 340.767 427.091 340.454 426.904 340.174C426.727 339.885 426.461 339.656 426.106 339.488C425.761 339.311 425.341 339.222 424.846 339.222C424.202 339.222 423.68 339.395 423.278 339.74C422.886 340.085 422.69 340.547 422.69 341.126C422.69 341.705 422.891 342.167 423.292 342.512C423.694 342.848 424.235 343.016 424.916 343.016ZM437.289 340.51C438.315 340.51 439.099 340.762 439.641 341.266C440.191 341.77 440.467 342.521 440.467 343.52V348H439.193V347.02C438.969 347.365 438.647 347.631 438.227 347.818C437.816 347.995 437.326 348.084 436.757 348.084C435.926 348.084 435.259 347.883 434.755 347.482C434.26 347.081 434.013 346.553 434.013 345.9C434.013 345.247 434.251 344.724 434.727 344.332C435.203 343.931 435.959 343.73 436.995 343.73H439.123V343.464C439.123 342.885 438.955 342.442 438.619 342.134C438.283 341.826 437.788 341.672 437.135 341.672C436.696 341.672 436.267 341.747 435.847 341.896C435.427 342.036 435.072 342.227 434.783 342.47L434.223 341.462C434.605 341.154 435.063 340.921 435.595 340.762C436.127 340.594 436.691 340.51 437.289 340.51ZM436.981 347.048C437.494 347.048 437.937 346.936 438.311 346.712C438.684 346.479 438.955 346.152 439.123 345.732V344.696H437.051C435.912 344.696 435.343 345.079 435.343 345.844C435.343 346.217 435.487 346.511 435.777 346.726C436.066 346.941 436.467 347.048 436.981 347.048ZM449.761 340.58V348H448.417V341.756H444.231V348H442.887V340.58H449.761ZM456.296 340.51C457.014 340.51 457.658 340.669 458.228 340.986C458.797 341.303 459.24 341.747 459.558 342.316C459.884 342.885 460.048 343.543 460.048 344.29C460.048 345.037 459.884 345.699 459.558 346.278C459.24 346.847 458.797 347.291 458.228 347.608C457.658 347.925 457.014 348.084 456.296 348.084C455.764 348.084 455.274 347.981 454.826 347.776C454.387 347.571 454.014 347.272 453.706 346.88V350.716H452.362V340.58H453.65V341.756C453.948 341.345 454.326 341.037 454.784 340.832C455.241 340.617 455.745 340.51 456.296 340.51ZM456.184 346.908C456.66 346.908 457.084 346.801 457.458 346.586C457.84 346.362 458.139 346.054 458.354 345.662C458.578 345.261 458.69 344.803 458.69 344.29C458.69 343.777 458.578 343.324 458.354 342.932C458.139 342.531 457.84 342.223 457.458 342.008C457.084 341.793 456.66 341.686 456.184 341.686C455.717 341.686 455.292 341.798 454.91 342.022C454.536 342.237 454.238 342.54 454.014 342.932C453.799 343.324 453.692 343.777 453.692 344.29C453.692 344.803 453.799 345.261 454.014 345.662C454.228 346.054 454.527 346.362 454.91 346.586C455.292 346.801 455.717 346.908 456.184 346.908ZM468.706 344.332C468.706 344.435 468.697 344.57 468.678 344.738H462.658C462.742 345.391 463.027 345.919 463.512 346.32C464.007 346.712 464.618 346.908 465.346 346.908C466.233 346.908 466.947 346.609 467.488 346.012L468.23 346.88C467.894 347.272 467.474 347.571 466.97 347.776C466.476 347.981 465.92 348.084 465.304 348.084C464.52 348.084 463.825 347.925 463.218 347.608C462.612 347.281 462.14 346.829 461.804 346.25C461.478 345.671 461.314 345.018 461.314 344.29C461.314 343.571 461.473 342.923 461.79 342.344C462.117 341.765 462.56 341.317 463.12 341C463.69 340.673 464.329 340.51 465.038 340.51C465.748 340.51 466.378 340.673 466.928 341C467.488 341.317 467.922 341.765 468.23 342.344C468.548 342.923 468.706 343.585 468.706 344.332ZM465.038 341.644C464.394 341.644 463.853 341.84 463.414 342.232C462.985 342.624 462.733 343.137 462.658 343.772H467.418C467.344 343.147 467.087 342.638 466.648 342.246C466.219 341.845 465.682 341.644 465.038 341.644ZM477.038 340.58V348H475.694V341.756H472.502L472.418 343.408C472.372 344.407 472.283 345.242 472.152 345.914C472.022 346.577 471.807 347.109 471.508 347.51C471.21 347.911 470.794 348.112 470.262 348.112C470.02 348.112 469.744 348.07 469.436 347.986L469.52 346.852C469.642 346.88 469.754 346.894 469.856 346.894C470.23 346.894 470.51 346.731 470.696 346.404C470.883 346.077 471.004 345.69 471.06 345.242C471.116 344.794 471.168 344.155 471.214 343.324L471.34 340.58H477.038ZM485.587 340.58V348H484.383V345.648H482.227H482.073L480.449 348H479.007L480.813 345.466C480.253 345.298 479.824 345.023 479.525 344.64C479.226 344.248 479.077 343.763 479.077 343.184C479.077 342.335 479.366 341.691 479.945 341.252C480.524 340.804 481.322 340.58 482.339 340.58H485.587ZM480.449 343.226C480.449 343.721 480.603 344.089 480.911 344.332C481.228 344.565 481.7 344.682 482.325 344.682H484.383V341.756H482.381C481.093 341.756 480.449 342.246 480.449 343.226Z" fill="white"/>
<path d="M548.111 348.112C547.131 348.112 546.244 347.897 545.451 347.468C544.667 347.029 544.051 346.432 543.603 345.676C543.155 344.911 542.931 344.052 542.931 343.1C542.931 342.148 543.155 341.294 543.603 340.538C544.051 339.773 544.672 339.175 545.465 338.746C546.258 338.307 547.145 338.088 548.125 338.088C548.89 338.088 549.59 338.219 550.225 338.48C550.86 338.732 551.401 339.11 551.849 339.614L550.939 340.496C550.202 339.721 549.282 339.334 548.181 339.334C547.453 339.334 546.795 339.497 546.207 339.824C545.619 340.151 545.157 340.603 544.821 341.182C544.494 341.751 544.331 342.391 544.331 343.1C544.331 343.809 544.494 344.453 544.821 345.032C545.157 345.601 545.619 346.049 546.207 346.376C546.795 346.703 547.453 346.866 548.181 346.866C549.273 346.866 550.192 346.474 550.939 345.69L551.849 346.572C551.401 347.076 550.855 347.459 550.211 347.72C549.576 347.981 548.876 348.112 548.111 348.112ZM559.484 342.106C560.884 342.106 561.91 342.372 562.564 342.904C563.226 343.427 563.558 344.145 563.558 345.06C563.558 345.639 563.418 346.161 563.138 346.628C562.867 347.085 562.452 347.449 561.892 347.72C561.341 347.981 560.66 348.112 559.848 348.112C559.157 348.112 558.49 348.009 557.846 347.804C557.202 347.589 556.67 347.295 556.25 346.922L556.894 345.816C557.23 346.133 557.659 346.39 558.182 346.586C558.704 346.773 559.255 346.866 559.834 346.866C560.571 346.866 561.14 346.712 561.542 346.404C561.952 346.087 562.158 345.657 562.158 345.116C562.158 344.528 561.934 344.085 561.486 343.786C561.038 343.478 560.272 343.324 559.19 343.324H556.964L557.482 338.2H563.012V339.418H558.658L558.392 342.106H559.484ZM577.667 340.58V348H576.449V342.582L573.677 347.16H573.089L570.345 342.568V348H569.113V340.58H570.499L573.411 345.592L576.407 340.58H577.667ZM582.928 340.51C583.955 340.51 584.739 340.762 585.28 341.266C585.831 341.77 586.106 342.521 586.106 343.52V348H584.832V347.02C584.608 347.365 584.286 347.631 583.866 347.818C583.456 347.995 582.966 348.084 582.396 348.084C581.566 348.084 580.898 347.883 580.394 347.482C579.9 347.081 579.652 346.553 579.652 345.9C579.652 345.247 579.89 344.724 580.366 344.332C580.842 343.931 581.598 343.73 582.634 343.73H584.762V343.464C584.762 342.885 584.594 342.442 584.258 342.134C583.922 341.826 583.428 341.672 582.774 341.672C582.336 341.672 581.906 341.747 581.486 341.896C581.066 342.036 580.712 342.227 580.422 342.47L579.862 341.462C580.245 341.154 580.702 340.921 581.234 340.762C581.766 340.594 582.331 340.51 582.928 340.51ZM582.62 347.048C583.134 347.048 583.577 346.936 583.95 346.712C584.324 346.479 584.594 346.152 584.762 345.732V344.696H582.69C581.552 344.696 580.982 345.079 580.982 345.844C580.982 346.217 581.127 346.511 581.416 346.726C581.706 346.941 582.107 347.048 582.62 347.048ZM594.477 340.58V348H593.273V345.648H591.117H590.963L589.339 348H587.897L589.703 345.466C589.143 345.298 588.713 345.023 588.415 344.64C588.116 344.248 587.967 343.763 587.967 343.184C587.967 342.335 588.256 341.691 588.835 341.252C589.413 340.804 590.211 340.58 591.229 340.58H594.477ZM589.339 343.226C589.339 343.721 589.493 344.089 589.801 344.332C590.118 344.565 590.589 344.682 591.215 344.682H593.273V341.756H591.271C589.983 341.756 589.339 342.246 589.339 343.226Z" fill="white"/>
<path d="M183.062 216.286L181.549 216.791L182.201 218.743L180.103 219.444L179.451 217.492L174.445 219.165L173.961 217.717L176.373 210.358L178.631 209.603L176.435 216.551L178.931 215.717L178.35 213.978L180.382 213.299L180.963 215.038L182.477 214.533L183.062 216.286ZM188.395 216.851C187.625 217.108 186.875 217.147 186.146 216.968C185.417 216.788 184.76 216.397 184.175 215.796C183.596 215.182 183.139 214.375 182.805 213.375C182.471 212.375 182.352 211.46 182.449 210.63C182.552 209.789 182.841 209.078 183.315 208.496C183.79 207.914 184.413 207.495 185.183 207.237C185.953 206.98 186.703 206.941 187.432 207.121C188.161 207.3 188.815 207.697 189.394 208.31C189.979 208.912 190.438 209.713 190.772 210.713C191.107 211.714 191.222 212.634 191.12 213.476C191.023 214.305 190.737 215.011 190.262 215.592C189.787 216.174 189.165 216.594 188.395 216.851ZM187.787 215.032C188.353 214.843 188.715 214.451 188.871 213.858C189.036 213.262 188.948 212.454 188.608 211.436C188.268 210.418 187.853 209.721 187.362 209.343C186.881 208.963 186.357 208.867 185.791 209.056C185.233 209.243 184.872 209.634 184.707 210.23C184.551 210.824 184.643 211.629 184.983 212.647C185.323 213.665 185.734 214.365 186.215 214.745C186.705 215.123 187.229 215.218 187.787 215.032ZM197.407 213.84C196.637 214.097 195.887 214.136 195.158 213.957C194.429 213.777 193.772 213.387 193.187 212.785C192.608 212.171 192.152 211.364 191.817 210.364C191.483 209.364 191.365 208.449 191.461 207.619C191.564 206.778 191.853 206.067 192.328 205.485C192.802 204.903 193.425 204.484 194.195 204.226C194.965 203.969 195.715 203.93 196.444 204.11C197.173 204.289 197.827 204.686 198.406 205.299C198.991 205.901 199.45 206.702 199.785 207.702C200.119 208.703 200.235 209.623 200.132 210.465C200.035 211.294 199.749 212 199.274 212.581C198.8 213.163 198.177 213.583 197.407 213.84ZM196.799 212.021C197.366 211.832 197.727 211.44 197.883 210.847C198.048 210.251 197.96 209.443 197.62 208.425C197.28 207.407 196.865 206.71 196.375 206.332C195.893 205.952 195.369 205.856 194.803 206.046C194.245 206.232 193.884 206.623 193.719 207.219C193.563 207.813 193.655 208.618 193.995 209.637C194.335 210.655 194.746 211.354 195.227 211.734C195.718 212.112 196.242 212.207 196.799 212.021ZM209.055 206.745C209.298 207.471 209.241 208.184 208.884 208.884C208.524 209.575 207.865 210.149 206.906 210.607L207.403 212.095L206.075 212.538L205.592 211.091C204.925 211.274 204.262 211.368 203.604 211.371C202.946 211.375 202.388 211.295 201.93 211.133L202.119 209.269C202.539 209.405 203.002 209.481 203.51 209.498C204.017 209.516 204.518 209.467 205.01 209.351L204.27 207.134C203.591 207.193 203.003 207.203 202.508 207.162C202.012 207.121 201.559 206.972 201.148 206.715C200.735 206.45 200.429 206.021 200.231 205.428C199.985 204.693 200.041 203.976 200.398 203.276C200.76 202.564 201.427 201.983 202.397 201.53L201.905 200.056L203.233 199.613L203.716 201.06C204.835 200.785 205.824 200.755 206.683 200.97L206.564 202.825C205.773 202.666 205.019 202.662 204.302 202.813L205.056 205.07C205.723 205.005 206.3 204.994 206.787 205.038C207.28 205.07 207.733 205.219 208.147 205.484C208.557 205.741 208.86 206.161 209.055 206.745ZM202.333 204.607C202.407 204.829 202.552 204.982 202.767 205.067C202.983 205.153 203.266 205.191 203.617 205.182L202.987 203.296C202.678 203.488 202.473 203.7 202.373 203.93C202.269 204.151 202.256 204.377 202.333 204.607ZM206.321 208.855C206.616 208.677 206.816 208.482 206.922 208.27C207.028 208.057 207.044 207.84 206.97 207.619C206.897 207.398 206.752 207.244 206.536 207.159C206.33 207.07 206.054 207.025 205.708 207.022L206.321 208.855Z" fill="white"/>
<path d="M303.503 213.845C304.813 213.407 305.865 213.346 306.659 213.661C307.462 213.974 308.01 214.568 308.303 215.444C308.492 216.011 308.524 216.576 308.397 217.14C308.268 217.695 307.958 218.212 307.468 218.69C306.985 219.157 306.318 219.532 305.468 219.816C304.813 220.035 304.139 220.167 303.445 220.211C302.757 220.244 302.139 220.175 301.59 220.005L301.89 218.074C302.333 218.221 302.809 218.293 303.32 218.29C303.828 218.278 304.325 218.191 304.812 218.028C305.352 217.848 305.741 217.599 305.98 217.283C306.219 216.967 306.275 216.619 306.147 216.238C306.014 215.84 305.75 215.594 305.354 215.5C304.968 215.402 304.376 215.487 303.579 215.753L301.203 216.547L299.933 211.156L305.603 209.262L306.179 210.988L302.302 212.283L302.746 214.098L303.503 213.845ZM314.188 216.903C313.418 217.16 312.669 217.199 311.94 217.019C311.21 216.84 310.553 216.449 309.969 215.847C309.39 215.234 308.933 214.427 308.599 213.427C308.265 212.426 308.146 211.511 308.243 210.682C308.346 209.841 308.634 209.129 309.109 208.548C309.584 207.966 310.206 207.546 310.977 207.289C311.747 207.032 312.496 206.993 313.226 207.172C313.955 207.352 314.609 207.748 315.188 208.362C315.772 208.964 316.232 209.765 316.566 210.765C316.9 211.765 317.016 212.686 316.913 213.527C316.816 214.357 316.531 215.062 316.056 215.644C315.581 216.226 314.959 216.645 314.188 216.903ZM313.581 215.083C314.147 214.894 314.509 214.503 314.665 213.91C314.829 213.313 314.742 212.506 314.402 211.488C314.062 210.47 313.646 209.772 313.156 209.395C312.675 209.014 312.151 208.919 311.584 209.108C311.027 209.294 310.665 209.686 310.501 210.282C310.345 210.875 310.437 211.681 310.777 212.699C311.117 213.717 311.528 214.416 312.009 214.797C312.499 215.174 313.023 215.27 313.581 215.083ZM323.201 213.892C322.431 214.149 321.681 214.188 320.952 214.008C320.223 213.829 319.566 213.438 318.981 212.836C318.402 212.223 317.945 211.416 317.611 210.416C317.277 209.415 317.158 208.501 317.255 207.671C317.358 206.83 317.647 206.118 318.121 205.537C318.596 204.955 319.219 204.535 319.989 204.278C320.759 204.021 321.509 203.982 322.238 204.161C322.967 204.341 323.621 204.737 324.2 205.351C324.785 205.953 325.244 206.754 325.578 207.754C325.913 208.754 326.028 209.675 325.926 210.516C325.829 211.346 325.543 212.051 325.068 212.633C324.593 213.215 323.971 213.634 323.201 213.892ZM322.593 212.073C323.16 211.883 323.521 211.492 323.677 210.899C323.842 210.302 323.754 209.495 323.414 208.477C323.074 207.459 322.659 206.761 322.169 206.384C321.687 206.003 321.163 205.908 320.597 206.097C320.039 206.283 319.678 206.675 319.513 207.271C319.357 207.864 319.449 208.67 319.789 209.688C320.129 210.706 320.54 211.405 321.021 211.786C321.511 212.163 322.035 212.259 322.593 212.073ZM334.849 206.797C335.091 207.523 335.034 208.236 334.678 208.936C334.318 209.626 333.659 210.201 332.7 210.659L333.197 212.146L331.869 212.59L331.385 211.142C330.718 211.326 330.056 211.419 329.398 211.423C328.74 211.426 328.182 211.347 327.724 211.185L327.913 209.321C328.332 209.456 328.796 209.533 329.303 209.55C329.811 209.567 330.311 209.518 330.804 209.403L330.063 207.185C329.385 207.245 328.797 207.254 328.301 207.213C327.805 207.172 327.352 207.024 326.942 206.767C326.529 206.502 326.223 206.072 326.025 205.479C325.779 204.745 325.835 204.027 326.191 203.328C326.554 202.616 327.221 202.034 328.191 201.582L327.699 200.108L329.027 199.664L329.51 201.112C330.629 200.837 331.617 200.806 332.476 201.021L332.358 202.876C331.567 202.717 330.813 202.714 330.096 202.865L330.85 205.122C331.517 205.056 332.094 205.046 332.581 205.09C333.074 205.122 333.527 205.271 333.94 205.536C334.351 205.792 334.654 206.213 334.849 206.797ZM328.127 204.659C328.201 204.88 328.346 205.034 328.561 205.119C328.777 205.204 329.06 205.243 329.411 205.234L328.781 203.348C328.471 203.54 328.267 203.751 328.166 203.982C328.063 204.203 328.05 204.429 328.127 204.659ZM332.114 208.906C332.409 208.729 332.61 208.534 332.716 208.321C332.822 208.109 332.838 207.892 332.764 207.671C332.69 207.449 332.546 207.296 332.33 207.211C332.123 207.122 331.847 207.077 331.502 207.074L332.114 208.906Z" fill="white"/>
<path d="M429.619 213.806C430.929 213.369 431.981 213.307 432.775 213.623C433.578 213.935 434.126 214.529 434.419 215.406C434.608 215.972 434.639 216.538 434.513 217.101C434.383 217.656 434.074 218.173 433.584 218.651C433.101 219.118 432.434 219.493 431.584 219.777C430.929 219.996 430.255 220.128 429.561 220.173C428.873 220.206 428.255 220.137 427.706 219.966L428.006 218.036C428.448 218.183 428.925 218.255 429.436 218.251C429.943 218.239 430.441 218.152 430.927 217.989C431.467 217.809 431.857 217.561 432.096 217.245C432.335 216.929 432.39 216.58 432.263 216.2C432.13 215.801 431.866 215.555 431.47 215.461C431.084 215.364 430.492 215.448 429.695 215.714L427.318 216.509L426.048 211.117L431.718 209.223L432.295 210.949L428.418 212.244L428.862 214.059L429.619 213.806ZM437.451 211.19C438.761 210.752 439.813 210.691 440.607 211.006C441.41 211.318 441.958 211.913 442.251 212.789C442.44 213.356 442.472 213.921 442.345 214.485C442.216 215.04 441.906 215.556 441.416 216.035C440.933 216.501 440.266 216.877 439.416 217.161C438.761 217.38 438.087 217.511 437.393 217.556C436.706 217.589 436.087 217.52 435.538 217.349L435.838 215.419C436.281 215.566 436.757 215.638 437.268 215.635C437.776 215.623 438.273 215.535 438.76 215.373C439.3 215.192 439.689 214.944 439.928 214.628C440.167 214.312 440.223 213.964 440.096 213.583C439.962 213.185 439.698 212.938 439.303 212.844C438.916 212.747 438.324 212.832 437.527 213.098L435.151 213.892L433.881 208.5L439.551 206.606L440.127 208.332L436.25 209.628L436.694 211.443L437.451 211.19ZM448.137 214.247C447.366 214.505 446.617 214.543 445.888 214.364C445.158 214.184 444.501 213.794 443.917 213.192C443.338 212.579 442.881 211.772 442.547 210.771C442.213 209.771 442.094 208.856 442.191 208.027C442.294 207.185 442.582 206.474 443.057 205.892C443.532 205.31 444.155 204.891 444.925 204.634C445.695 204.376 446.444 204.337 447.174 204.517C447.903 204.696 448.557 205.093 449.136 205.707C449.72 206.308 450.18 207.109 450.514 208.11C450.848 209.11 450.964 210.031 450.861 210.872C450.765 211.701 450.479 212.407 450.004 212.989C449.529 213.57 448.907 213.99 448.137 214.247ZM447.529 212.428C448.095 212.239 448.457 211.847 448.613 211.254C448.777 210.658 448.69 209.851 448.35 208.833C448.01 207.815 447.594 207.117 447.104 206.739C446.623 206.359 446.099 206.263 445.532 206.453C444.975 206.639 444.613 207.03 444.449 207.627C444.293 208.22 444.385 209.026 444.725 210.044C445.065 211.062 445.476 211.761 445.957 212.141C446.447 212.519 446.971 212.614 447.529 212.428ZM459.785 207.153C460.027 207.879 459.97 208.591 459.613 209.291C459.254 209.982 458.595 210.556 457.636 211.015L458.133 212.502L456.805 212.945L456.321 211.498C455.654 211.682 454.992 211.775 454.333 211.778C453.675 211.782 453.117 211.702 452.66 211.54L452.849 209.676C453.268 209.812 453.732 209.888 454.239 209.906C454.747 209.923 455.247 209.874 455.74 209.759L454.999 207.541C454.32 207.601 453.733 207.61 453.237 207.569C452.741 207.528 452.288 207.379 451.878 207.123C451.464 206.857 451.158 206.428 450.96 205.835C450.715 205.1 450.77 204.383 451.127 203.683C451.49 202.972 452.156 202.39 453.127 201.938L452.635 200.464L453.962 200.02L454.446 201.467C455.564 201.192 456.553 201.162 457.412 201.377L457.294 203.232C456.503 203.073 455.749 203.069 455.032 203.22L455.786 205.477C456.453 205.412 457.03 205.401 457.517 205.445C458.01 205.477 458.463 205.626 458.876 205.891C459.287 206.148 459.589 206.568 459.785 207.153ZM453.063 205.014C453.137 205.236 453.281 205.389 453.497 205.475C453.712 205.56 453.996 205.598 454.347 205.589L453.717 203.704C453.407 203.896 453.202 204.107 453.102 204.337C452.999 204.558 452.986 204.784 453.063 205.014ZM457.05 209.262C457.345 209.085 457.546 208.89 457.652 208.677C457.758 208.464 457.774 208.248 457.7 208.026C457.626 207.805 457.481 207.652 457.266 207.566C457.059 207.478 456.783 207.432 456.438 207.429L457.05 209.262Z" fill="white"/>
<path d="M556.586 213.817C557.896 213.38 558.948 213.318 559.743 213.634C560.546 213.946 561.094 214.54 561.386 215.417C561.576 215.983 561.607 216.548 561.48 217.112C561.351 217.667 561.041 218.184 560.552 218.662C560.068 219.129 559.401 219.504 558.551 219.788C557.896 220.007 557.222 220.139 556.529 220.184C555.841 220.217 555.222 220.148 554.673 219.977L554.973 218.046C555.416 218.194 555.893 218.266 556.403 218.262C556.911 218.25 557.408 218.163 557.895 218C558.435 217.82 558.824 217.571 559.063 217.255C559.302 216.94 559.358 216.591 559.231 216.211C559.098 215.812 558.833 215.566 558.438 215.472C558.051 215.375 557.459 215.459 556.663 215.725L554.286 216.519L553.016 211.128L558.686 209.234L559.263 210.96L555.385 212.255L555.829 214.07L556.586 213.817ZM563.343 207.501C564.644 207.066 565.795 207.124 566.796 207.675C567.794 208.218 568.542 209.233 569.039 210.72C569.39 211.773 569.493 212.743 569.346 213.628C569.208 214.511 568.845 215.267 568.258 215.896C567.672 216.525 566.909 216.996 565.971 217.31C565.475 217.475 564.983 217.58 564.497 217.625C564.007 217.661 563.568 217.63 563.182 217.533L563.45 215.686C564.005 215.845 564.637 215.807 565.345 215.57C566.133 215.307 566.68 214.868 566.987 214.254C567.29 213.631 567.313 212.876 567.056 211.987C566.685 212.731 566.008 213.267 565.025 213.596C564.432 213.794 563.852 213.855 563.285 213.778C562.719 213.702 562.221 213.494 561.793 213.155C561.362 212.807 561.05 212.346 560.858 211.77C560.651 211.151 560.624 210.554 560.777 209.982C560.93 209.409 561.231 208.91 561.679 208.485C562.133 208.048 562.688 207.72 563.343 207.501ZM564.966 211.829C565.435 211.673 565.773 211.417 565.98 211.063C566.192 210.697 566.23 210.31 566.094 209.903C565.958 209.496 565.701 209.212 565.323 209.053C564.954 208.891 564.517 208.894 564.013 209.063C563.552 209.217 563.217 209.466 563.008 209.812C562.808 210.154 562.778 210.538 562.92 210.963C563.062 211.388 563.318 211.681 563.687 211.844C564.062 211.994 564.488 211.989 564.966 211.829ZM571.798 204.676C573.099 204.241 574.25 204.3 575.251 204.851C576.249 205.393 576.996 206.408 577.493 207.895C577.845 208.949 577.948 209.918 577.801 210.804C577.663 211.686 577.3 212.442 576.713 213.071C576.126 213.7 575.364 214.171 574.425 214.485C573.93 214.65 573.438 214.756 572.951 214.8C572.461 214.836 572.023 214.805 571.636 214.708L571.905 212.862C572.46 213.021 573.092 212.982 573.8 212.745C574.588 212.482 575.135 212.044 575.441 211.429C575.745 210.806 575.768 210.051 575.511 209.163C575.139 209.907 574.462 210.443 573.48 210.771C572.887 210.969 572.307 211.03 571.74 210.954C571.173 210.877 570.676 210.67 570.248 210.331C569.816 209.983 569.505 209.521 569.312 208.946C569.105 208.326 569.078 207.73 569.232 207.157C569.385 206.584 569.685 206.085 570.134 205.66C570.588 205.223 571.143 204.895 571.798 204.676ZM573.421 209.005C573.89 208.848 574.228 208.592 574.434 208.238C574.647 207.872 574.685 207.485 574.549 207.078C574.413 206.671 574.156 206.388 573.778 206.229C573.409 206.067 572.972 206.07 572.467 206.238C572.007 206.392 571.672 206.642 571.463 206.987C571.262 207.33 571.233 207.713 571.375 208.138C571.517 208.563 571.772 208.857 572.142 209.019C572.516 209.169 572.943 209.164 573.421 209.005ZM586.817 207.142C587.06 207.868 587.002 208.58 586.646 209.28C586.286 209.971 585.627 210.546 584.668 211.004L585.165 212.491L583.837 212.935L583.354 211.487C582.687 211.671 582.024 211.764 581.366 211.767C580.708 211.771 580.15 211.692 579.692 211.53L579.881 209.666C580.301 209.801 580.764 209.877 581.272 209.895C581.779 209.912 582.28 209.863 582.772 209.748L582.032 207.53C581.353 207.59 580.765 207.599 580.27 207.558C579.774 207.517 579.32 207.368 578.91 207.112C578.497 206.846 578.191 206.417 577.993 205.824C577.747 205.089 577.803 204.372 578.16 203.672C578.522 202.961 579.189 202.379 580.159 201.927L579.667 200.453L580.995 200.009L581.478 201.456C582.597 201.181 583.586 201.151 584.445 201.366L584.326 203.221C583.535 203.062 582.781 203.058 582.064 203.209L582.818 205.467C583.485 205.401 584.062 205.39 584.549 205.434C585.042 205.467 585.495 205.615 585.909 205.881C586.319 206.137 586.622 206.558 586.817 207.142ZM580.095 205.004C580.169 205.225 580.314 205.378 580.529 205.464C580.745 205.549 581.028 205.587 581.379 205.578L580.749 203.693C580.44 203.885 580.235 204.096 580.134 204.326C580.031 204.548 580.018 204.773 580.095 205.004ZM584.082 209.251C584.378 209.074 584.578 208.879 584.684 208.666C584.79 208.454 584.806 208.237 584.732 208.015C584.658 207.794 584.514 207.641 584.298 207.555C584.092 207.467 583.816 207.421 583.47 207.419L584.082 209.251Z" fill="white"/>
<path d="M178.555 142.481C179.148 142.283 179.728 142.222 180.294 142.298C180.861 142.375 181.36 142.587 181.791 142.935C182.219 143.274 182.53 143.731 182.722 144.307C182.929 144.926 182.956 145.523 182.803 146.095C182.65 146.668 182.346 147.173 181.892 147.61C181.444 148.035 180.892 148.357 180.237 148.576C178.935 149.011 177.784 148.953 176.783 148.402C175.782 147.85 175.035 146.835 174.541 145.357C174.189 144.304 174.087 143.334 174.234 142.449C174.381 141.563 174.743 140.807 175.321 140.181C175.908 139.552 176.671 139.081 177.609 138.767C178.105 138.602 178.598 138.501 179.088 138.465C179.583 138.418 180.025 138.443 180.411 138.54L180.143 140.386C179.579 140.23 178.947 140.269 178.248 140.502C177.46 140.766 176.913 141.204 176.606 141.818C176.3 142.433 176.275 143.184 176.533 144.072C176.898 143.34 177.572 142.809 178.555 142.481ZM179.58 147.009C180.041 146.856 180.371 146.608 180.572 146.265C180.781 145.92 180.815 145.534 180.673 145.109C180.531 144.685 180.272 144.397 179.897 144.247C179.528 144.085 179.105 144.083 178.627 144.243C178.158 144.4 177.817 144.661 177.605 145.027C177.389 145.385 177.35 145.767 177.486 146.174C177.622 146.581 177.879 146.865 178.257 147.024C178.635 147.183 179.076 147.178 179.58 147.009ZM188.519 145.809C187.749 146.067 186.999 146.105 186.27 145.926C185.541 145.746 184.884 145.356 184.299 144.754C183.72 144.141 183.264 143.334 182.929 142.333C182.595 141.333 182.476 140.418 182.573 139.589C182.676 138.747 182.965 138.036 183.44 137.454C183.914 136.872 184.537 136.453 185.307 136.196C186.077 135.938 186.827 135.899 187.556 136.079C188.285 136.258 188.939 136.655 189.518 137.269C190.103 137.87 190.562 138.671 190.896 139.672C191.231 140.672 191.346 141.593 191.244 142.434C191.147 143.263 190.861 143.969 190.386 144.551C189.911 145.132 189.289 145.552 188.519 145.809ZM187.911 143.99C188.478 143.801 188.839 143.409 188.995 142.816C189.16 142.22 189.072 141.413 188.732 140.395C188.392 139.377 187.977 138.679 187.487 138.301C187.005 137.921 186.481 137.825 185.915 138.015C185.357 138.201 184.996 138.592 184.831 139.189C184.675 139.782 184.767 140.588 185.107 141.606C185.447 142.624 185.858 143.323 186.339 143.703C186.829 144.081 187.353 144.176 187.911 143.99ZM197.531 142.798C196.761 143.056 196.011 143.094 195.282 142.915C194.553 142.735 193.896 142.345 193.311 141.743C192.732 141.13 192.276 140.323 191.942 139.322C191.607 138.322 191.489 137.407 191.586 136.578C191.688 135.736 191.977 135.025 192.452 134.443C192.927 133.861 193.549 133.442 194.319 133.185C195.089 132.927 195.839 132.888 196.568 133.068C197.297 133.248 197.951 133.644 198.53 134.258C199.115 134.859 199.575 135.66 199.909 136.661C200.243 137.661 200.359 138.582 200.256 139.423C200.159 140.252 199.873 140.958 199.398 141.54C198.924 142.121 198.301 142.541 197.531 142.798ZM196.923 140.979C197.49 140.79 197.851 140.399 198.007 139.805C198.172 139.209 198.084 138.402 197.744 137.384C197.404 136.366 196.989 135.668 196.499 135.29C196.017 134.91 195.494 134.815 194.927 135.004C194.369 135.19 194.008 135.581 193.843 136.178C193.687 136.771 193.779 137.577 194.119 138.595C194.459 139.613 194.87 140.312 195.351 140.692C195.842 141.07 196.366 141.165 196.923 140.979ZM209.179 135.704C209.422 136.43 209.365 137.142 209.008 137.842C208.648 138.533 207.989 139.108 207.03 139.566L207.527 141.053L206.199 141.496L205.716 140.049C205.049 140.233 204.386 140.326 203.728 140.329C203.07 140.333 202.512 140.253 202.054 140.091L202.244 138.227C202.663 138.363 203.126 138.439 203.634 138.457C204.141 138.474 204.642 138.425 205.135 138.31L204.394 136.092C203.715 136.152 203.128 136.161 202.632 136.12C202.136 136.079 201.683 135.93 201.272 135.674C200.859 135.408 200.553 134.979 200.355 134.386C200.109 133.651 200.165 132.934 200.522 132.234C200.884 131.523 201.551 130.941 202.522 130.489L202.029 129.015L203.357 128.571L203.841 130.018C204.959 129.743 205.948 129.713 206.807 129.928L206.688 131.783C205.897 131.624 205.143 131.62 204.426 131.771L205.18 134.028C205.847 133.963 206.424 133.952 206.911 133.996C207.404 134.028 207.857 134.177 208.271 134.443C208.681 134.699 208.984 135.119 209.179 135.704ZM202.457 133.566C202.531 133.787 202.676 133.94 202.891 134.026C203.107 134.111 203.39 134.149 203.742 134.14L203.112 132.255C202.802 132.447 202.597 132.658 202.497 132.888C202.393 133.11 202.38 133.335 202.457 133.566ZM206.445 137.813C206.74 137.636 206.94 137.441 207.046 137.228C207.152 137.015 207.169 136.799 207.095 136.577C207.021 136.356 206.876 136.203 206.66 136.117C206.454 136.029 206.178 135.983 205.832 135.98L206.445 137.813Z" fill="white"/>
<path d="M306.387 138L306.853 139.394L306.04 148.448L303.703 149.229L304.516 140.573L301.435 141.602L301.941 143.116L300.029 143.755L298.938 140.488L306.387 138ZM314.227 145.89C313.457 146.147 312.708 146.186 311.978 146.007C311.249 145.827 310.592 145.436 310.008 144.835C309.429 144.221 308.972 143.414 308.638 142.414C308.304 141.414 308.185 140.499 308.282 139.669C308.385 138.828 308.673 138.117 309.148 137.535C309.623 136.953 310.245 136.534 311.016 136.276C311.786 136.019 312.535 135.98 313.264 136.16C313.994 136.339 314.648 136.736 315.227 137.349C315.811 137.951 316.271 138.752 316.605 139.752C316.939 140.752 317.055 141.673 316.952 142.514C316.855 143.344 316.57 144.05 316.095 144.631C315.62 145.213 314.998 145.633 314.227 145.89ZM313.62 144.071C314.186 143.881 314.547 143.49 314.703 142.897C314.868 142.3 314.781 141.493 314.441 140.475C314.101 139.457 313.685 138.76 313.195 138.382C312.714 138.002 312.19 137.906 311.623 138.095C311.066 138.282 310.704 138.673 310.539 139.269C310.383 139.863 310.475 140.668 310.816 141.686C311.156 142.704 311.566 143.404 312.048 143.784C312.538 144.161 313.062 144.257 313.62 144.071ZM323.24 142.879C322.47 143.136 321.72 143.175 320.991 142.996C320.262 142.816 319.605 142.425 319.02 141.824C318.441 141.21 317.984 140.403 317.65 139.403C317.316 138.403 317.197 137.488 317.294 136.658C317.397 135.817 317.686 135.106 318.16 134.524C318.635 133.942 319.258 133.523 320.028 133.265C320.798 133.008 321.548 132.969 322.277 133.149C323.006 133.328 323.66 133.725 324.239 134.338C324.824 134.94 325.283 135.741 325.617 136.741C325.952 137.742 326.067 138.662 325.965 139.504C325.868 140.333 325.582 141.039 325.107 141.62C324.632 142.202 324.01 142.622 323.24 142.879ZM322.632 141.06C323.198 140.87 323.56 140.479 323.716 139.886C323.881 139.29 323.793 138.482 323.453 137.464C323.113 136.446 322.698 135.749 322.207 135.371C321.726 134.991 321.202 134.895 320.636 135.084C320.078 135.271 319.717 135.662 319.552 136.258C319.396 136.852 319.488 137.657 319.828 138.675C320.168 139.693 320.579 140.393 321.06 140.773C321.55 141.151 322.074 141.246 322.632 141.06ZM334.888 135.784C335.13 136.51 335.073 137.223 334.717 137.923C334.357 138.614 333.698 139.188 332.739 139.646L333.236 141.133L331.908 141.577L331.424 140.13C330.757 140.313 330.095 140.407 329.437 140.41C328.778 140.413 328.221 140.334 327.763 140.172L327.952 138.308C328.371 138.444 328.835 138.52 329.342 138.537C329.85 138.555 330.35 138.506 330.843 138.39L330.102 136.173C329.423 136.232 328.836 136.241 328.34 136.201C327.844 136.16 327.391 136.011 326.981 135.754C326.567 135.489 326.262 135.06 326.063 134.467C325.818 133.732 325.874 133.015 326.23 132.315C326.593 131.603 327.259 131.021 328.23 130.569L327.738 129.095L329.066 128.652L329.549 130.099C330.668 129.824 331.656 129.794 332.515 130.008L332.397 131.864C331.606 131.705 330.852 131.701 330.135 131.852L330.889 134.109C331.556 134.044 332.133 134.033 332.62 134.077C333.113 134.109 333.566 134.258 333.979 134.523C334.39 134.78 334.693 135.2 334.888 135.784ZM328.166 133.646C328.24 133.867 328.384 134.021 328.6 134.106C328.816 134.192 329.099 134.23 329.45 134.221L328.82 132.335C328.51 132.527 328.305 132.738 328.205 132.969C328.102 133.19 328.089 133.416 328.166 133.646ZM332.153 137.894C332.448 137.716 332.649 137.521 332.755 137.309C332.861 137.096 332.877 136.879 332.803 136.658C332.729 136.437 332.584 136.283 332.369 136.198C332.162 136.109 331.886 136.064 331.541 136.061L332.153 137.894Z" fill="white"/>
<path d="M432.451 137.978L432.917 139.373L432.104 148.427L429.767 149.208L430.58 140.552L427.499 141.581L428.005 143.095L426.093 143.734L425.002 140.467L432.451 137.978ZM437.542 140.16C438.852 139.722 439.904 139.661 440.698 139.976C441.501 140.288 442.049 140.883 442.342 141.759C442.531 142.326 442.562 142.891 442.436 143.455C442.306 144.01 441.997 144.526 441.507 145.005C441.024 145.471 440.357 145.847 439.507 146.131C438.852 146.349 438.178 146.481 437.484 146.526C436.796 146.559 436.178 146.49 435.629 146.319L435.929 144.389C436.371 144.536 436.848 144.608 437.359 144.605C437.866 144.593 438.364 144.505 438.85 144.342C439.39 144.162 439.78 143.914 440.019 143.598C440.258 143.282 440.313 142.934 440.186 142.553C440.053 142.155 439.789 141.908 439.393 141.814C439.007 141.717 438.415 141.802 437.618 142.068L435.241 142.862L433.971 137.47L439.641 135.576L440.218 137.302L436.341 138.598L436.785 140.413L437.542 140.16ZM448.227 143.217C447.457 143.474 446.707 143.513 445.978 143.334C445.249 143.154 444.592 142.764 444.007 142.162C443.429 141.548 442.972 140.742 442.638 139.741C442.304 138.741 442.185 137.826 442.282 136.997C442.384 136.155 442.673 135.444 443.148 134.862C443.623 134.28 444.245 133.861 445.015 133.603C445.786 133.346 446.535 133.307 447.264 133.487C447.994 133.666 448.648 134.063 449.226 134.676C449.811 135.278 450.271 136.079 450.605 137.079C450.939 138.08 451.055 139.001 450.952 139.842C450.855 140.671 450.569 141.377 450.095 141.959C449.62 142.54 448.997 142.96 448.227 143.217ZM447.62 141.398C448.186 141.209 448.547 140.817 448.703 140.224C448.868 139.628 448.781 138.821 448.441 137.803C448.1 136.785 447.685 136.087 447.195 135.709C446.714 135.329 446.19 135.233 445.623 135.423C445.066 135.609 444.704 136 444.539 136.597C444.383 137.19 444.475 137.996 444.815 139.014C445.156 140.032 445.566 140.731 446.048 141.111C446.538 141.489 447.062 141.584 447.62 141.398ZM459.875 136.123C460.118 136.848 460.061 137.561 459.704 138.261C459.345 138.952 458.685 139.526 457.726 139.985L458.223 141.472L456.895 141.915L456.412 140.468C455.745 140.651 455.082 140.745 454.424 140.748C453.766 140.752 453.208 140.672 452.751 140.51L452.94 138.646C453.359 138.782 453.822 138.858 454.33 138.876C454.838 138.893 455.338 138.844 455.831 138.728L455.09 136.511C454.411 136.57 453.824 136.58 453.328 136.539C452.832 136.498 452.379 136.349 451.968 136.093C451.555 135.827 451.249 135.398 451.051 134.805C450.806 134.07 450.861 133.353 451.218 132.653C451.58 131.942 452.247 131.36 453.218 130.907L452.725 129.434L454.053 128.99L454.537 130.437C455.655 130.162 456.644 130.132 457.503 130.347L457.385 132.202C456.594 132.043 455.839 132.039 455.122 132.19L455.876 134.447C456.543 134.382 457.12 134.371 457.608 134.415C458.1 134.447 458.554 134.596 458.967 134.861C459.377 135.118 459.68 135.538 459.875 136.123ZM453.153 133.984C453.227 134.206 453.372 134.359 453.588 134.445C453.803 134.53 454.087 134.568 454.438 134.559L453.808 132.673C453.498 132.866 453.293 133.077 453.193 133.307C453.09 133.528 453.077 133.754 453.153 133.984ZM457.141 138.232C457.436 138.054 457.636 137.86 457.743 137.647C457.849 137.434 457.865 137.217 457.791 136.996C457.717 136.775 457.572 136.621 457.357 136.536C457.15 136.448 456.874 136.402 456.529 136.399L457.141 138.232Z" fill="white"/>
<path d="M559.341 138.015L559.806 139.409L558.994 148.464L556.657 149.244L557.47 140.589L554.389 141.618L554.895 143.132L552.983 143.77L551.891 140.504L559.341 138.015ZM563.512 136.445C564.813 136.01 565.964 136.068 566.965 136.619C567.963 137.162 568.71 138.176 569.207 139.664C569.559 140.717 569.662 141.687 569.515 142.572C569.376 143.455 569.014 144.211 568.427 144.84C567.84 145.469 567.077 145.94 566.139 146.253C565.643 146.419 565.152 146.524 564.665 146.569C564.175 146.605 563.737 146.574 563.35 146.477L563.619 144.63C564.174 144.789 564.806 144.751 565.514 144.514C566.302 144.251 566.849 143.812 567.155 143.198C567.459 142.575 567.482 141.819 567.225 140.931C566.853 141.675 566.176 142.211 565.194 142.54C564.6 142.738 564.021 142.799 563.454 142.722C562.887 142.646 562.39 142.438 561.961 142.099C561.53 141.751 561.219 141.29 561.026 140.714C560.819 140.094 560.792 139.498 560.945 138.926C561.099 138.353 561.399 137.854 561.848 137.429C562.302 136.991 562.856 136.663 563.512 136.445ZM565.135 140.773C565.604 140.617 565.942 140.361 566.148 140.007C566.36 139.641 566.398 139.254 566.262 138.847C566.126 138.439 565.869 138.156 565.492 137.997C565.122 137.835 564.686 137.838 564.181 138.007C563.721 138.161 563.386 138.41 563.177 138.756C562.976 139.098 562.947 139.482 563.089 139.907C563.231 140.332 563.486 140.625 563.855 140.787C564.23 140.938 564.657 140.933 565.135 140.773ZM571.966 133.62C573.268 133.185 574.419 133.243 575.42 133.795C576.418 134.337 577.165 135.352 577.662 136.839C578.014 137.892 578.116 138.862 577.969 139.747C577.831 140.63 577.469 141.386 576.882 142.015C576.295 142.644 575.532 143.115 574.594 143.429C574.098 143.594 573.607 143.7 573.12 143.744C572.63 143.78 572.192 143.749 571.805 143.652L572.074 141.806C572.629 141.965 573.26 141.926 573.968 141.689C574.756 141.426 575.303 140.987 575.61 140.373C575.914 139.75 575.937 138.995 575.679 138.107C575.308 138.851 574.631 139.387 573.648 139.715C573.055 139.913 572.475 139.974 571.909 139.898C571.342 139.821 570.844 139.614 570.416 139.275C569.985 138.927 569.673 138.465 569.481 137.889C569.274 137.27 569.247 136.674 569.4 136.101C569.553 135.528 569.854 135.029 570.302 134.604C570.756 134.167 571.311 133.839 571.966 133.62ZM573.59 137.949C574.059 137.792 574.396 137.536 574.603 137.182C574.815 136.816 574.853 136.429 574.717 136.022C574.581 135.615 574.324 135.332 573.946 135.173C573.577 135.01 573.14 135.014 572.636 135.182C572.175 135.336 571.841 135.586 571.631 135.931C571.431 136.274 571.402 136.657 571.544 137.082C571.686 137.507 571.941 137.801 572.31 137.963C572.685 138.113 573.111 138.108 573.59 137.949ZM586.986 136.086C587.228 136.812 587.171 137.524 586.814 138.224C586.455 138.915 585.796 139.49 584.837 139.948L585.334 141.435L584.006 141.879L583.522 140.431C582.855 140.615 582.193 140.708 581.534 140.711C580.876 140.715 580.318 140.636 579.861 140.473L580.05 138.61C580.469 138.745 580.933 138.821 581.44 138.839C581.948 138.856 582.448 138.807 582.941 138.692L582.2 136.474C581.521 136.534 580.934 136.543 580.438 136.502C579.942 136.461 579.489 136.312 579.079 136.056C578.665 135.79 578.359 135.361 578.161 134.768C577.916 134.033 577.971 133.316 578.328 132.616C578.691 131.905 579.357 131.323 580.328 130.871L579.836 129.397L581.163 128.953L581.647 130.4C582.765 130.125 583.754 130.095 584.613 130.31L584.495 132.165C583.704 132.006 582.95 132.002 582.233 132.153L582.987 134.411C583.654 134.345 584.231 134.334 584.718 134.378C585.211 134.41 585.664 134.559 586.077 134.825C586.488 135.081 586.79 135.501 586.986 136.086ZM580.264 133.948C580.338 134.169 580.482 134.322 580.698 134.408C580.913 134.493 581.197 134.531 581.548 134.522L580.918 132.637C580.608 132.829 580.403 133.04 580.303 133.27C580.2 133.492 580.187 133.717 580.264 133.948ZM584.251 138.195C584.546 138.018 584.747 137.823 584.853 137.61C584.959 137.398 584.975 137.181 584.901 136.959C584.827 136.738 584.682 136.585 584.467 136.499C584.26 136.411 583.984 136.365 583.639 136.362L584.251 138.195Z" fill="white"/>
<path d="M173.628 69.2745L176.734 78.5695L174.583 79.2881L172.054 71.7194L170.195 72.3405L169.618 70.6142L173.628 69.2745ZM182.385 76.8585C181.615 77.1158 180.865 77.1547 180.136 76.9751C179.407 76.7956 178.75 76.405 178.165 75.8033C177.587 75.1897 177.13 74.3828 176.796 73.3825C176.462 72.3822 176.343 71.4673 176.44 70.6379C176.542 69.7967 176.831 69.0852 177.306 68.5034C177.781 67.9216 178.403 67.5021 179.173 67.2448C179.944 66.9875 180.693 66.9486 181.422 67.1282C182.151 67.3077 182.805 67.7042 183.384 68.3177C183.969 68.9194 184.429 69.7204 184.763 70.7208C185.097 71.7211 185.213 72.6418 185.11 73.4831C185.013 74.3125 184.727 75.0181 184.253 75.5999C183.778 76.1816 183.155 76.6012 182.385 76.8585ZM181.777 75.0393C182.344 74.85 182.705 74.4587 182.861 73.8654C183.026 73.2691 182.939 72.4619 182.598 71.4439C182.258 70.4258 181.843 69.7281 181.353 69.3507C180.872 68.9703 180.348 68.8747 179.781 69.064C179.223 69.2503 178.862 69.6416 178.697 70.2379C178.541 70.8313 178.633 71.637 178.973 72.655C179.314 73.673 179.724 74.3722 180.206 74.7526C180.696 75.1301 181.22 75.2256 181.777 75.0393ZM191.398 73.8475C190.627 74.1048 189.878 74.1437 189.149 73.9642C188.419 73.7846 187.763 73.394 187.178 72.7923C186.599 72.1788 186.142 71.3719 185.808 70.3716C185.474 69.3713 185.355 68.4564 185.452 67.627C185.555 66.7857 185.843 66.0742 186.318 65.4925C186.793 64.9107 187.416 64.4912 188.186 64.2339C188.956 63.9766 189.705 63.9377 190.435 64.1172C191.164 64.2968 191.818 64.6933 192.397 65.3068C192.981 65.9085 193.441 66.7095 193.775 67.7098C194.109 68.7101 194.225 69.6309 194.122 70.4721C194.026 71.3016 193.74 72.0072 193.265 72.5889C192.79 73.1707 192.168 73.5902 191.398 73.8475ZM190.79 72.0284C191.356 71.8391 191.718 71.4478 191.874 70.8544C192.039 70.2581 191.951 69.4509 191.611 68.4329C191.271 67.4149 190.855 66.7172 190.365 66.3397C189.884 65.9593 189.36 65.8637 188.793 66.053C188.236 66.2393 187.874 66.6307 187.71 67.227C187.554 67.8203 187.646 68.626 187.986 69.644C188.326 70.662 188.737 71.3613 189.218 71.7417C189.708 72.1191 190.232 72.2147 190.79 72.0284ZM200.41 70.8366C199.64 71.0939 198.89 71.1328 198.161 70.9532C197.432 70.7737 196.775 70.3831 196.19 69.7814C195.611 69.1679 195.155 68.3609 194.82 67.3606C194.486 66.3603 194.367 65.4454 194.464 64.616C194.567 63.7748 194.856 63.0633 195.331 62.4815C195.805 61.8997 196.428 61.4802 197.198 61.2229C197.968 60.9656 198.718 60.9267 199.447 61.1063C200.176 61.2858 200.83 61.6823 201.409 62.2958C201.994 62.8975 202.453 63.6985 202.787 64.6989C203.122 65.6992 203.237 66.6199 203.135 67.4612C203.038 68.2906 202.752 68.9962 202.277 69.578C201.802 70.1597 201.18 70.5793 200.41 70.8366ZM199.802 69.0174C200.369 68.8281 200.73 68.4368 200.886 67.8435C201.051 67.2472 200.963 66.44 200.623 65.422C200.283 64.4039 199.868 63.7062 199.378 63.3288C198.896 62.9484 198.372 62.8528 197.806 63.0421C197.248 63.2284 196.887 63.6197 196.722 64.216C196.566 64.8094 196.658 65.6151 196.998 66.6331C197.338 67.6511 197.749 68.3503 198.23 68.7307C198.72 69.1082 199.244 69.2037 199.802 69.0174ZM212.058 63.7419C212.3 64.4678 212.243 65.1807 211.887 65.8804C211.527 66.5713 210.868 67.1458 209.909 67.6039L210.406 69.0911L209.078 69.5348L208.594 68.0874C207.928 68.2708 207.265 68.3643 206.607 68.3677C205.949 68.3711 205.391 68.2918 204.933 68.1297L205.122 66.2658C205.541 66.4012 206.005 66.4777 206.513 66.495C207.02 66.5124 207.52 66.4633 208.013 66.3479L207.272 64.1304C206.594 64.1899 206.006 64.1991 205.51 64.1582C205.015 64.1172 204.561 63.9684 204.151 63.7119C203.738 63.4466 203.432 63.0174 203.234 62.4243C202.988 61.6895 203.044 60.9723 203.4 60.2725C203.763 59.561 204.43 58.9791 205.4 58.5268L204.908 57.0529L206.236 56.6093L206.719 58.0567C207.838 57.7814 208.826 57.7512 209.685 57.9661L209.567 59.8212C208.776 59.6623 208.022 59.6584 207.305 59.8094L208.059 62.0668C208.726 62.0014 209.303 61.9907 209.79 62.0346C210.283 62.0667 210.736 62.2155 211.149 62.4808C211.56 62.7373 211.863 63.1577 212.058 63.7419ZM205.336 61.6038C205.41 61.8251 205.555 61.9785 205.77 62.0639C205.986 62.1494 206.269 62.1875 206.62 62.1784L205.99 60.2929C205.681 60.4849 205.476 60.6961 205.375 60.9264C205.272 61.1478 205.259 61.3736 205.336 61.6038ZM209.323 65.8512C209.618 65.6739 209.819 65.4789 209.925 65.2664C210.031 65.0538 210.047 64.8368 209.973 64.6155C209.899 64.3942 209.755 64.2408 209.539 64.1554C209.332 64.067 209.056 64.0214 208.711 64.0187L209.323 65.8512Z" fill="white"/>
<path d="M301.483 68.6381L304.588 77.9331L302.437 78.6517L299.909 71.083L298.05 71.7041L297.473 69.9779L301.483 68.6381ZM306.683 66.9008L309.788 76.1958L307.637 76.9145L305.109 69.3457L303.25 69.9668L302.673 68.2406L306.683 66.9008ZM315.44 74.4848C314.67 74.7421 313.92 74.781 313.191 74.6015C312.462 74.4219 311.805 74.0313 311.22 73.4296C310.641 72.8161 310.185 72.0092 309.85 71.0089C309.516 70.0086 309.397 69.0937 309.494 68.2643C309.597 67.423 309.886 66.7115 310.361 66.1298C310.835 65.548 311.458 65.1285 312.228 64.8712C312.998 64.6139 313.748 64.575 314.477 64.7545C315.206 64.9341 315.86 65.3306 316.439 65.9441C317.024 66.5458 317.483 67.3468 317.818 68.3471C318.152 69.3474 318.267 70.2682 318.165 71.1094C318.068 71.9389 317.782 72.6445 317.307 73.2262C316.833 73.808 316.21 74.2275 315.44 74.4848ZM314.832 72.6657C315.399 72.4764 315.76 72.0851 315.916 71.4917C316.081 70.8954 315.993 70.0882 315.653 69.0702C315.313 68.0522 314.898 67.3545 314.408 66.977C313.926 66.5966 313.402 66.501 312.836 66.6903C312.278 66.8766 311.917 67.268 311.752 67.8643C311.596 68.4576 311.688 69.2633 312.028 70.2813C312.368 71.2993 312.779 71.9986 313.26 72.379C313.75 72.7564 314.274 72.852 314.832 72.6657ZM324.452 71.4739C323.682 71.7312 322.932 71.7701 322.203 71.5905C321.474 71.411 320.817 71.0204 320.232 70.4187C319.653 69.8052 319.197 68.9982 318.863 67.9979C318.528 66.9976 318.41 66.0827 318.507 65.2533C318.609 64.4121 318.898 63.7006 319.373 63.1188C319.848 62.537 320.47 62.1175 321.24 61.8602C322.01 61.6029 322.76 61.564 323.489 61.7436C324.218 61.9231 324.872 62.3196 325.451 62.9331C326.036 63.5348 326.496 64.3358 326.83 65.3362C327.164 66.3365 327.28 67.2573 327.177 68.0985C327.08 68.9279 326.794 69.6335 326.32 70.2153C325.845 70.797 325.222 71.2166 324.452 71.4739ZM323.844 69.6547C324.411 69.4654 324.772 69.0741 324.928 68.4808C325.093 67.8845 325.006 67.0773 324.665 66.0593C324.325 65.0412 323.91 64.3435 323.42 63.9661C322.939 63.5857 322.415 63.4901 321.848 63.6794C321.29 63.8657 320.929 64.257 320.764 64.8533C320.608 65.4467 320.7 66.2524 321.04 67.2704C321.38 68.2884 321.791 68.9876 322.273 69.368C322.763 69.7455 323.287 69.841 323.844 69.6547ZM336.1 64.3792C336.343 65.1051 336.286 65.818 335.929 66.5177C335.569 67.2086 334.91 67.7831 333.951 68.2412L334.448 69.7284L333.12 70.1721L332.637 68.7247C331.97 68.9081 331.307 69.0016 330.649 69.005C329.991 69.0084 329.433 68.9291 328.975 68.767L329.165 66.9031C329.584 67.0385 330.047 67.115 330.555 67.1323C331.063 67.1497 331.563 67.1006 332.056 66.9852L331.315 64.7677C330.636 64.8272 330.049 64.8364 329.553 64.7955C329.057 64.7545 328.604 64.6057 328.193 64.3492C327.78 64.0839 327.474 63.6547 327.276 63.0616C327.03 62.3268 327.086 61.6096 327.443 60.9098C327.805 60.1983 328.472 59.6164 329.443 59.1641L328.95 57.6902L330.278 57.2466L330.762 58.694C331.88 58.4187 332.869 58.3885 333.728 58.6034L333.609 60.4585C332.818 60.2996 332.064 60.2957 331.347 60.4467L332.101 62.7041C332.768 62.6387 333.345 62.628 333.832 62.6719C334.325 62.704 334.778 62.8528 335.192 63.1181C335.602 63.3746 335.905 63.795 336.1 64.3792ZM329.378 62.2411C329.452 62.4624 329.597 62.6158 329.812 62.7012C330.028 62.7867 330.311 62.8248 330.663 62.8157L330.033 60.9302C329.723 61.1222 329.518 61.3334 329.418 61.5637C329.315 61.7851 329.301 62.0109 329.378 62.2411ZM333.366 66.4885C333.661 66.3112 333.861 66.1162 333.967 65.9037C334.074 65.6911 334.09 65.4741 334.016 65.2528C333.942 65.0315 333.797 64.8781 333.581 64.7927C333.375 64.7043 333.099 64.6587 332.753 64.656L333.366 66.4885Z" fill="white"/>
<path d="M425.706 69.232L428.811 78.5269L426.66 79.2456L424.131 71.6769L422.272 72.2979L421.695 70.5717L425.706 69.232ZM436.785 73.9145L437.37 75.6673L430.346 78.0141L429.88 76.6199L432.334 72.036C432.594 71.5459 432.747 71.1503 432.794 70.8492C432.838 70.5393 432.817 70.256 432.731 69.9993C432.607 69.6275 432.384 69.3871 432.062 69.2781C431.746 69.1573 431.345 69.1782 430.858 69.3409C430.451 69.4769 430.11 69.6793 429.836 69.9481C429.559 70.208 429.361 70.5299 429.243 70.9136L427.339 70.428C427.522 69.7667 427.881 69.1791 428.418 68.6652C428.952 68.1424 429.631 67.7435 430.454 67.4685C431.144 67.2378 431.785 67.1517 432.375 67.2104C432.971 67.2572 433.481 67.4413 433.903 67.7627C434.331 68.0723 434.638 68.506 434.825 69.0637C434.993 69.5683 435.045 70.0774 434.981 70.591C434.916 71.1046 434.673 71.7467 434.251 72.5173L432.788 75.2499L436.785 73.9145ZM442.269 74.2079C441.499 74.4652 440.749 74.5041 440.02 74.3245C439.291 74.145 438.634 73.7544 438.049 73.1527C437.47 72.5392 437.014 71.7323 436.679 70.732C436.345 69.7316 436.226 68.8168 436.323 67.9873C436.426 67.1461 436.715 66.4346 437.19 65.8528C437.664 65.2711 438.287 64.8515 439.057 64.5942C439.827 64.3369 440.577 64.2981 441.306 64.4776C442.035 64.6571 442.689 65.0537 443.268 65.6672C443.853 66.2689 444.312 67.0699 444.646 68.0702C444.981 69.0705 445.096 69.9913 444.994 70.8325C444.897 71.6619 444.611 72.3675 444.136 72.9493C443.661 73.5311 443.039 73.9506 442.269 74.2079ZM441.661 72.3887C442.228 72.1995 442.589 71.8081 442.745 71.2148C442.91 70.6185 442.822 69.8113 442.482 68.7933C442.142 67.7753 441.727 67.0775 441.237 66.7001C440.755 66.3197 440.231 66.2241 439.665 66.4134C439.107 66.5997 438.746 66.991 438.581 67.5873C438.425 68.1807 438.517 68.9864 438.857 70.0044C439.197 71.0224 439.608 71.7216 440.089 72.102C440.579 72.4795 441.103 72.5751 441.661 72.3887ZM451.281 71.1969C450.511 71.4543 449.761 71.4931 449.032 71.3136C448.303 71.1341 447.646 70.7434 447.061 70.1417C446.482 69.5282 446.026 68.7213 445.692 67.721C445.357 66.7207 445.239 65.8058 445.336 64.9764C445.438 64.1352 445.727 63.4237 446.202 62.8419C446.677 62.2601 447.299 61.8406 448.069 61.5833C448.839 61.326 449.589 61.2871 450.318 61.4666C451.047 61.6462 451.701 62.0427 452.28 62.6562C452.865 63.2579 453.325 64.0589 453.659 65.0592C453.993 66.0596 454.109 66.9803 454.006 67.8216C453.909 68.651 453.623 69.3566 453.149 69.9383C452.674 70.5201 452.051 70.9396 451.281 71.1969ZM450.673 69.3778C451.24 69.1885 451.601 68.7972 451.757 68.2038C451.922 67.6075 451.834 66.8004 451.494 65.7823C451.154 64.7643 450.739 64.0666 450.249 63.6891C449.768 63.3087 449.244 63.2132 448.677 63.4024C448.119 63.5888 447.758 63.9801 447.593 64.5764C447.437 65.1697 447.529 65.9754 447.869 66.9935C448.209 68.0115 448.62 68.7107 449.101 69.0911C449.592 69.4685 450.116 69.5641 450.673 69.3778ZM462.929 64.1023C463.172 64.8282 463.115 65.541 462.758 66.2408C462.398 66.9317 461.739 67.5062 460.78 67.9643L461.277 69.4515L459.949 69.8951L459.466 68.4478C458.799 68.6312 458.136 68.7246 457.478 68.728C456.82 68.7314 456.262 68.6521 455.804 68.4901L455.994 66.6261C456.413 66.7616 456.876 66.838 457.384 66.8554C457.891 66.8728 458.392 66.8237 458.885 66.7083L458.144 64.4908C457.465 64.5503 456.878 64.5595 456.382 64.5185C455.886 64.4776 455.433 64.3288 455.022 64.0723C454.609 63.807 454.303 63.3777 454.105 62.7846C453.859 62.0499 453.915 61.3326 454.272 60.6329C454.634 59.9214 455.301 59.3395 456.272 58.8872L455.779 57.4133L457.107 56.9697L457.591 58.417C458.709 58.1418 459.698 58.1116 460.557 58.3265L460.438 60.1815C459.647 60.0227 458.893 60.0188 458.176 60.1698L458.93 62.4272C459.597 62.3618 460.174 62.351 460.661 62.395C461.154 62.4271 461.607 62.5758 462.021 62.8412C462.431 63.0977 462.734 63.5181 462.929 64.1023ZM456.207 61.9642C456.281 62.1855 456.426 62.3389 456.641 62.4243C456.857 62.5097 457.14 62.5479 457.492 62.5388L456.862 60.6533C456.552 60.8453 456.347 61.0565 456.247 61.2868C456.143 61.5082 456.13 61.734 456.207 61.9642ZM460.195 66.2115C460.49 66.0342 460.69 65.8393 460.796 65.6267C460.902 65.4142 460.919 65.1972 460.845 64.9759C460.771 64.7546 460.626 64.6012 460.41 64.5158C460.204 64.4274 459.928 64.3818 459.582 64.3791L460.195 66.2115Z" fill="white"/>
<path d="M553.724 68.8916L556.83 78.1865L554.679 78.9052L552.15 71.3364L550.291 71.9575L549.714 70.2313L553.724 68.8916ZM564.804 73.5741L565.389 75.3269L558.365 77.6737L557.899 76.2794L560.353 71.6956C560.612 71.2055 560.766 70.8099 560.813 70.5088C560.857 70.1989 560.836 69.9156 560.75 69.6588C560.626 69.287 560.403 69.0467 560.081 68.9377C559.765 68.8169 559.364 68.8378 558.877 69.0005C558.47 69.1365 558.129 69.3389 557.855 69.6077C557.577 69.8676 557.38 70.1895 557.262 70.5732L555.358 70.0875C555.541 69.4263 555.9 68.8387 556.437 68.3248C556.971 67.802 557.649 67.4031 558.473 67.128C559.163 66.8974 559.804 66.8113 560.394 66.87C560.99 66.9168 561.499 67.1009 561.922 67.4223C562.35 67.7319 562.657 68.1656 562.843 68.7233C563.012 69.2279 563.064 69.7369 562.999 70.2505C562.935 70.7641 562.692 71.4063 562.27 72.1769L560.807 74.9095L564.804 73.5741ZM566.385 64.4847C567.686 64.05 568.837 64.1082 569.838 64.6594C570.836 65.2018 571.583 66.2166 572.08 67.7038C572.432 68.7572 572.535 69.7267 572.388 70.6123C572.25 71.4949 571.887 72.2507 571.3 72.8797C570.713 73.5088 569.951 73.9801 569.012 74.2936C568.517 74.4592 568.025 74.5643 567.538 74.6089C567.048 74.6447 566.61 74.614 566.223 74.5168L566.492 72.6705C567.047 72.8295 567.679 72.7907 568.387 72.5541C569.175 72.2909 569.722 71.8522 570.028 71.2381C570.332 70.6152 570.355 69.8596 570.098 68.9713C569.726 69.7154 569.049 70.2515 568.067 70.5798C567.474 70.778 566.894 70.8389 566.327 70.7625C565.76 70.6862 565.263 70.4784 564.835 70.1393C564.403 69.7913 564.092 69.3296 563.9 68.7542C563.692 68.1346 563.666 67.5384 563.819 66.9657C563.972 66.393 564.272 65.894 564.721 65.4687C565.175 65.0316 565.73 64.7036 566.385 64.4847ZM568.008 68.8134C568.477 68.6567 568.815 68.4011 569.021 68.0468C569.234 67.6807 569.272 67.294 569.136 66.8868C569 66.4796 568.743 66.1964 568.365 66.0373C567.996 65.8752 567.559 65.8785 567.054 66.0471C566.594 66.2009 566.259 66.4505 566.05 66.7959C565.849 67.1384 565.82 67.5222 565.962 67.9471C566.104 68.372 566.359 68.6655 566.729 68.8276C567.103 68.9778 567.53 68.9731 568.008 68.8134ZM574.839 61.6601C576.141 61.2253 577.292 61.2835 578.293 61.8348C579.291 62.3772 580.038 63.392 580.535 64.8792C580.887 65.9326 580.989 66.9021 580.842 67.7876C580.704 68.6702 580.342 69.426 579.755 70.0551C579.168 70.6841 578.405 71.1554 577.467 71.4689C576.971 71.6345 576.48 71.7396 575.993 71.7843C575.503 71.82 575.065 71.7893 574.678 71.6922L574.947 69.8459C575.502 70.0049 576.133 69.9661 576.842 69.7295C577.629 69.4662 578.177 69.0276 578.483 68.4135C578.787 67.7905 578.81 67.0349 578.552 66.1467C578.181 66.8907 577.504 67.4269 576.521 67.7551C575.928 67.9533 575.348 68.0142 574.782 67.9379C574.215 67.8615 573.717 67.6538 573.289 67.3146C572.858 66.9667 572.546 66.505 572.354 65.9296C572.147 65.3099 572.12 64.7137 572.273 64.141C572.426 63.5684 572.727 63.0694 573.175 62.644C573.63 62.2069 574.184 61.8789 574.839 61.6601ZM576.463 65.9887C576.932 65.832 577.27 65.5765 577.476 65.2221C577.688 64.856 577.726 64.4693 577.59 64.0621C577.454 63.6549 577.197 63.3718 576.819 63.2126C576.45 63.0506 576.014 63.0538 575.509 63.2224C575.049 63.3762 574.714 63.6258 574.504 63.9713C574.304 64.3138 574.275 64.6975 574.417 65.1224C574.559 65.5473 574.814 65.8408 575.183 66.0029C575.558 66.1532 575.985 66.1484 576.463 65.9887ZM589.859 64.1258C590.101 64.8517 590.044 65.5645 589.688 66.2643C589.328 66.9552 588.669 67.5297 587.71 67.9878L588.207 69.475L586.879 69.9186L586.395 68.4713C585.728 68.6547 585.066 68.7481 584.408 68.7515C583.749 68.7549 583.192 68.6756 582.734 68.5136L582.923 66.6496C583.342 66.7851 583.806 66.8615 584.313 66.8789C584.821 66.8963 585.321 66.8472 585.814 66.7318L585.073 64.5143C584.394 64.5738 583.807 64.583 583.311 64.542C582.815 64.5011 582.362 64.3523 581.952 64.0958C581.538 63.8305 581.233 63.4012 581.034 62.8081C580.789 62.0734 580.845 61.3561 581.201 60.6564C581.564 59.9449 582.23 59.363 583.201 58.9107L582.709 57.4368L584.037 56.9932L584.52 58.4405C585.639 58.1653 586.627 58.1351 587.486 58.35L587.368 60.205C586.577 60.0462 585.823 60.0423 585.106 60.1933L585.86 62.4507C586.527 62.3853 587.104 62.3745 587.591 62.4185C588.084 62.4506 588.537 62.5993 588.95 62.8647C589.361 63.1212 589.664 63.5416 589.859 64.1258ZM583.137 61.9877C583.211 62.209 583.355 62.3624 583.571 62.4478C583.787 62.5332 584.07 62.5714 584.421 62.5623L583.791 60.6768C583.481 60.8688 583.276 61.08 583.176 61.3103C583.073 61.5317 583.06 61.7575 583.137 61.9877ZM587.124 66.235C587.419 66.0578 587.62 65.8628 587.726 65.6502C587.832 65.4377 587.848 65.2207 587.774 64.9994C587.7 64.7781 587.555 64.6247 587.34 64.5393C587.133 64.4509 586.857 64.4053 586.512 64.4026L587.124 66.235Z" fill="white"/>
</svg>
