<svg width="98" height="103" viewBox="0 0 98 103" fill="none" xmlns="http://www.w3.org/2000/svg">
<circle cx="68" cy="30" r="30" fill="#E9AE30"/>
<path d="M73.617 61.7234H60.5054C60.4014 55.351 59.5212 49.193 57.9911 43.7329H66.59C67.2952 43.7329 67.8666 43.1615 67.8666 42.4563C67.8666 41.7512 67.2952 41.1797 66.59 41.1797H57.2092C55.8444 37.0666 54.0916 33.4315 52.0087 30.5149C51.5988 29.9411 50.8014 29.808 50.2279 30.2179C49.6541 30.6276 49.5212 31.425 49.9309 31.9986C51.7382 34.5294 53.282 37.6495 54.5207 41.1797H41.2766V29.383C41.2766 28.6778 40.7052 28.1064 40 28.1064C39.2948 28.1064 38.7234 28.6778 38.7234 29.383V41.1797H25.4792C26.7178 37.6495 28.2616 34.5294 30.0689 31.9986C30.4786 31.425 30.3457 30.6276 29.7719 30.2179C29.198 29.8082 28.4009 29.9413 27.9911 30.5149C25.9083 33.4315 24.1554 37.0667 22.7906 41.1797H13.4099C12.7047 41.1797 12.1333 41.7512 12.1333 42.4563C12.1333 43.1615 12.7047 43.7329 13.4099 43.7329H22.0087C20.4788 49.193 19.5986 55.351 19.4945 61.7234H6.38298C5.67779 61.7234 5.10638 62.2948 5.10638 63C5.10638 63.7052 5.67779 64.2766 6.38298 64.2766H19.4946C19.5986 70.649 20.4788 76.807 22.0089 82.2671H13.4099C12.7047 82.2671 12.1333 82.8385 12.1333 83.5437C12.1333 84.2489 12.7047 84.8203 13.4099 84.8203H22.7906C24.1556 88.9341 25.9089 92.5699 27.9923 95.4868C28.2415 95.8356 28.634 96.0216 29.0323 96.0216C29.289 96.0216 29.5483 95.9443 29.7733 95.7838C30.3469 95.374 30.4798 94.5767 30.0701 94.0029C28.2623 91.472 26.7181 88.3512 25.4792 84.8204H38.7234V96.617C38.7234 97.3222 39.2948 97.8936 40 97.8936C40.7052 97.8936 41.2766 97.3222 41.2766 96.617V84.8203H54.5209C53.282 88.3511 51.7377 91.4718 49.9299 94.0027C49.5202 94.5765 49.6531 95.3738 50.2267 95.7837C50.4516 95.9442 50.7108 96.0214 50.9677 96.0214C51.3661 96.0214 51.7585 95.8354 52.0077 95.4866C54.0911 92.5697 55.8443 88.934 57.2094 84.8201H66.5901C67.2953 84.8201 67.8667 84.2487 67.8667 83.5435C67.8667 82.8383 67.2953 82.2669 66.5901 82.2669H57.9911C59.5212 76.8068 60.4014 70.6488 60.5054 64.2764H73.617C74.3222 64.2764 74.8936 63.705 74.8936 62.9998C74.8936 62.2946 74.3222 61.7234 73.617 61.7234ZM55.343 43.7329C56.9282 49.1258 57.8443 55.3003 57.9517 61.7234H41.2766V43.7329H55.343ZM24.657 43.7329H38.7234V61.7234H22.0483C22.1559 55.3001 23.0718 49.1258 24.657 43.7329ZM24.657 82.2671C23.0718 76.8742 22.1557 70.6997 22.0483 64.2766H38.7234V82.2671H24.657ZM55.343 82.2671H41.2766V64.2766H57.9517C57.8441 70.6999 56.9282 76.8744 55.343 82.2671Z" fill="black"/>
<path d="M68.2843 34.7157C60.7292 27.1607 50.6844 23 40 23C29.3156 23 19.2708 27.1607 11.7157 34.7157C4.16068 42.2708 0 52.3156 0 63.0002C0 70.8761 2.27932 78.4723 6.59813 85.0114L1.70996 99.6749C1.55711 100.134 1.67643 100.639 2.01838 100.981C2.36034 101.323 2.86587 101.442 3.32494 101.29L17.9888 96.402C24.528 100.721 32.1241 103 40 103C50.6844 103 60.7292 98.8393 68.2843 91.2843C75.8393 83.7292 80 73.6844 80 63.0002C80 52.3156 75.8393 42.2708 68.2843 34.7157ZM40 100.447C32.4271 100.447 25.1311 98.1963 18.9003 93.9387C18.6854 93.792 18.434 93.7161 18.1801 93.7161C18.0444 93.7161 17.9081 93.7377 17.7763 93.7816L4.93957 98.0603L9.21872 85.2238C9.34485 84.8451 9.28664 84.4293 9.06162 84.0997C4.80374 77.8693 2.55319 70.5731 2.55319 63.0002C2.55319 42.3518 19.3517 25.5532 40 25.5532C60.6483 25.5532 77.4468 42.3518 77.4468 63.0002C77.4468 83.6483 60.6483 100.447 40 100.447Z" fill="black"/>
</svg>
