<svg width="98" height="103" viewBox="0 0 98 103" fill="none" xmlns="http://www.w3.org/2000/svg">
<circle cx="68" cy="30" r="30" fill="#E9AE30"/>
<g clip-path="url(#clip0)">
<path d="M40 48.193C46.9457 48.193 52.5964 42.5423 52.5964 35.5964C52.5964 28.6507 46.9457 23 40 23C33.0543 23 27.4036 28.6507 27.4036 35.5964C27.4036 42.5423 33.0543 48.193 40 48.193ZM40 25.5532C45.5379 25.5532 50.0432 30.0586 50.0432 35.5964C50.0432 41.1343 45.5379 45.6398 40 45.6398C34.4621 45.6398 29.9568 41.1343 29.9568 35.5964C29.9568 30.0586 34.4621 25.5532 40 25.5532Z" fill="black"/>
<path d="M40 53.2994C50.1807 53.2994 58.5399 61.2466 59.1988 71.2635H29.6953C28.9903 71.2635 28.4187 71.8349 28.4187 72.5401C28.4187 73.2453 28.9903 73.8167 29.6953 73.8167H60.5174C61.2225 73.8167 61.794 73.2453 61.794 72.5401C61.794 60.5229 52.0173 50.7462 40 50.7462C27.9826 50.7462 18.2059 60.5229 18.2059 72.5401C18.2059 73.2453 18.7775 73.8167 19.4825 73.8167H24.5889C25.2939 73.8167 25.8655 73.2453 25.8655 72.5401C25.8655 71.8349 25.2939 71.2635 24.5889 71.2635H20.801C21.4601 61.2466 29.8194 53.2994 40 53.2994Z" fill="black"/>
<path d="M23.8992 87.2914L16.8962 86.1161L13.6143 79.8191C13.3944 79.3971 12.9581 79.1324 12.4822 79.1324C12.0063 79.1324 11.57 79.3971 11.3501 79.8191L8.06824 86.1161L1.06518 87.2914C0.595903 87.3702 0.20935 87.7033 0.0622861 88.1559C-0.0847778 88.6084 0.0321584 89.1052 0.365435 89.4446L5.34024 94.5119L4.29395 101.535C4.22382 102.006 4.42126 102.477 4.80629 102.756C5.19097 103.036 5.69973 103.078 6.12561 102.866L12.482 99.7008L18.8385 102.866C19.0185 102.956 19.2134 103 19.4073 103C19.6723 103 19.9356 102.918 20.1578 102.756C20.5428 102.476 20.7402 102.006 20.6701 101.535L19.6238 94.5117L24.5986 89.4444C24.9319 89.105 25.0488 88.6082 24.9018 88.1558C24.7551 87.7033 24.3685 87.3702 23.8992 87.2914ZM17.3568 93.1769C17.0764 93.4625 16.946 93.8632 17.0051 94.2593L17.7842 99.4887L13.0514 97.1318C12.6931 96.9532 12.2716 96.9532 11.9132 97.1318L7.18024 99.4887L7.95931 94.2593C8.01837 93.8632 7.88816 93.4623 7.60765 93.1769L3.90348 89.4039L9.11778 88.5287C9.51267 88.4623 9.85361 88.2147 10.0386 87.8596L12.4822 83.1709L14.9258 87.8596C15.1108 88.2147 15.4517 88.4623 15.8466 88.5287L21.0609 89.4039L17.3568 93.1769Z" fill="black"/>
<path d="M51.417 87.2914L44.4139 86.1161L41.1321 79.8191C40.9122 79.3971 40.4759 79.1324 40 79.1324C39.5241 79.1324 39.0878 79.3971 38.8679 79.8191L35.586 86.1161L28.583 87.2914C28.1137 87.3702 27.7271 87.7033 27.5801 88.1559C27.433 88.6084 27.5499 89.1052 27.8832 89.4446L32.858 94.5119L31.8119 101.535C31.7418 102.006 31.9392 102.477 32.3242 102.756C32.7089 103.036 33.2177 103.078 33.6436 102.866L40 99.7008L46.3564 102.866C46.5365 102.956 46.7314 103 46.9253 103C47.1903 103 47.4536 102.918 47.6757 102.756C48.0608 102.476 48.2582 102.006 48.1881 101.535L47.1419 94.5117L52.1168 89.4444C52.45 89.105 52.567 88.6082 52.4199 88.1558C52.2728 87.7033 51.8863 87.3702 51.417 87.2914ZM44.8745 93.1769C44.5942 93.4625 44.4638 93.8632 44.5229 94.2593L45.3018 99.4887L40.569 97.1318C40.3898 97.0426 40.1949 96.998 40 96.998C39.8051 96.998 39.61 97.0426 39.431 97.1318L34.6982 99.4887L35.4771 94.2593C35.5362 93.8632 35.4059 93.4623 35.1254 93.1769L31.4213 89.4039L36.6356 88.5287C37.0305 88.4623 37.3714 88.2147 37.5564 87.8596L40 83.1711L42.4436 87.8598C42.6286 88.2148 42.9695 88.4625 43.3644 88.5289L48.5787 89.4041L44.8745 93.1769Z" fill="black"/>
<path d="M79.9375 88.1559C79.7904 87.7033 79.4041 87.3702 78.9346 87.2914L71.9315 86.1161L68.6497 79.8191C68.4298 79.3971 67.9935 79.1324 67.5176 79.1324C67.0417 79.1324 66.6054 79.3971 66.3855 79.8191L63.1036 86.1161L56.1006 87.2914C55.6313 87.3702 55.2447 87.7033 55.0977 88.1559C54.9506 88.6084 55.0676 89.1052 55.4008 89.4446L60.3756 94.5119L59.3293 101.535C59.2592 102.006 59.4567 102.477 59.8417 102.756C60.2264 103.036 60.7351 103.078 61.161 102.866L67.5174 99.7008L73.8738 102.866C74.0539 102.956 74.2488 103 74.4427 103C74.7077 103 74.971 102.918 75.1932 102.756C75.5782 102.476 75.7756 102.006 75.7055 101.535L74.6592 94.5117L79.634 89.4444C79.9676 89.1052 80.0846 88.6084 79.9375 88.1559ZM72.3923 93.1769C72.112 93.4625 71.9816 93.8632 72.0407 94.2593L72.8197 99.4887L68.0868 97.1318C67.9076 97.0426 67.7127 96.998 67.5178 96.998C67.3227 96.998 67.1278 97.0426 66.9487 97.1318L62.216 99.4887L62.995 94.2593C63.0541 93.8632 62.9239 93.4623 62.6434 93.1769L58.9392 89.4039L64.1535 88.5287C64.5484 88.4623 64.8893 88.2147 65.0744 87.8596L67.5179 83.1709L69.9615 87.8596C70.1465 88.2147 70.4875 88.4623 70.8824 88.5287L76.0967 89.4039L72.3923 93.1769Z" fill="black"/>
<path d="M40 41.3845C41.6733 41.3845 43.2653 40.6574 44.3676 39.3895C44.8301 38.8574 44.7739 38.0511 44.2418 37.5885C43.7096 37.1258 42.9033 37.1822 42.4408 37.7142C41.8238 38.4242 40.9339 38.8313 40 38.8313C39.066 38.8313 38.1763 38.4242 37.5591 37.7142C37.0965 37.1822 36.2902 37.126 35.7581 37.5885C35.226 38.0511 35.1697 38.8574 35.6323 39.3895C36.7346 40.6572 38.3266 41.3845 40 41.3845Z" fill="black"/>
</g>
<defs>
<clipPath id="clip0">
<rect width="80" height="80" fill="white" transform="translate(0 23)"/>
</clipPath>
</defs>
</svg>
