<svg width="98" height="98" viewBox="0 0 98 98" fill="none" xmlns="http://www.w3.org/2000/svg">
<circle cx="68" cy="30" r="30" fill="#E9AE30"/>
<g clip-path="url(#clip0)">
<path d="M43.8412 79.3676H36.1816C35.4766 79.3676 34.905 79.9392 34.905 80.6442C34.905 81.3492 35.4766 81.9208 36.1816 81.9208H43.8412C44.5462 81.9208 45.1178 81.3492 45.1178 80.6442C45.1178 79.9392 44.5462 79.3676 43.8412 79.3676Z" fill="black"/>
<path d="M79.9935 85.6227C79.9884 85.571 79.9796 85.5211 79.9687 85.4721C79.9661 85.4607 79.9629 85.4496 79.96 85.4384C79.9501 85.3994 79.9387 85.3611 79.9253 85.3237C79.921 85.3118 79.9169 85.3 79.9123 85.2883C79.8953 85.2444 79.8763 85.2016 79.8546 85.1603C79.8531 85.1575 79.8522 85.1545 79.8507 85.1516C79.8443 85.1393 72.7658 71.8154 72.7658 71.8154V37.0452C72.7658 36.3402 72.1942 35.7686 71.4892 35.7686C70.7842 35.7686 70.2126 36.3402 70.2126 37.0452V70.857H9.78706V34.93C9.78706 32.8181 11.505 31.1002 13.6169 31.1002H64.2677C64.9728 31.1002 65.5443 30.5286 65.5443 29.8236C65.5443 29.1186 64.9728 28.547 64.2677 28.547H13.617C10.0974 28.547 7.23404 31.4103 7.23404 34.93V71.8154L0.155745 85.1393C0.147745 85.1545 0.146723 85.1574 0.145362 85.1603C0.123745 85.2016 0.104681 85.2445 0.0876596 85.2884C0.0830638 85.3 0.0789787 85.3118 0.0748936 85.3235C0.0614468 85.3611 0.0500426 85.3994 0.0401702 85.4386C0.0372766 85.4498 0.0340426 85.4607 0.0316596 85.4721C0.020766 85.5211 0.0119149 85.571 0.00680851 85.6219C0.00221277 85.6648 0 85.7073 0 85.7506V88.3038C0 91.8234 2.86332 94.6867 6.38298 94.6867H73.617C77.1367 94.6867 80 91.8234 80 88.3038V85.7506C80 85.7073 79.9978 85.6648 79.9935 85.6227ZM9.27796 73.4101H70.7219L76.5995 84.474H3.40034L9.27796 73.4101ZM73.617 92.1336H6.38298C4.27115 92.1336 2.55319 90.4156 2.55319 88.3038V87.0272H77.4468V88.3038C77.4468 90.4156 75.7289 92.1336 73.617 92.1336Z" fill="black"/>
<path d="M71.9149 23.8664H75.6415L45.1729 54.3348L35.7413 44.9031C35.2427 44.4046 34.4344 44.4046 33.936 44.9031L12.7144 66.1246C12.2158 66.6231 12.2158 67.4315 12.7144 67.9299C12.9636 68.1791 13.2904 68.3038 13.617 68.3038C13.9437 68.3038 14.2705 68.1792 14.5197 67.9299L34.8385 47.611L44.2701 57.0427C44.7687 57.5413 45.577 57.5413 46.0754 57.0427L77.4468 25.6716V29.3983C77.4468 30.1033 78.0184 30.6749 78.7234 30.6749C79.4284 30.6749 80 30.1033 80 29.3983V22.5898C80 21.8847 79.4284 21.3132 78.7234 21.3132H71.9149C71.2099 21.3132 70.6383 21.8847 70.6383 22.5898C70.6383 23.2948 71.2097 23.8664 71.9149 23.8664Z" fill="black"/>
</g>
<defs>
<clipPath id="clip0">
<rect width="80" height="80" fill="white" transform="translate(0 18)"/>
</clipPath>
</defs>
</svg>
