<svg width="98" height="99" viewBox="0 0 98 99" fill="none" xmlns="http://www.w3.org/2000/svg">
<circle cx="68" cy="30" r="30" fill="#E9AE30"/>
<path d="M57.3988 57.913C60.9202 57.913 63.785 55.0482 63.785 51.527C63.785 48.0058 60.9202 45.1409 57.3988 45.1409C53.8774 45.1409 51.0128 48.0056 51.0128 51.527C51.0128 55.0483 53.8774 57.913 57.3988 57.913ZM57.3988 47.6941C59.5123 47.6941 61.2318 49.4136 61.2318 51.527C61.2318 53.6405 59.5123 55.3598 57.3988 55.3598C55.2854 55.3598 53.5659 53.6403 53.5659 51.527C53.5659 49.4136 55.2854 47.6941 57.3988 47.6941Z" fill="black"/>
<path d="M57.3988 60.4662C55.6658 60.4662 53.9474 60.8967 52.4289 61.711C51.8076 62.0442 51.5739 62.818 51.9072 63.4393C52.2403 64.0604 53.0138 64.2941 53.6354 63.961C54.7841 63.345 56.0858 63.0194 57.3988 63.0194C61.3669 63.0194 64.6682 65.9293 65.2813 69.7271H57.3988C56.6936 69.7271 56.1222 70.2987 56.1222 71.0037C56.1222 71.7087 56.6936 72.2803 57.3988 72.2803H66.6597C67.3649 72.2803 67.9363 71.7087 67.9363 71.0037C67.9363 65.1932 63.2092 60.4662 57.3988 60.4662Z" fill="black"/>
<path d="M22.7146 69.727H14.7188C15.3319 65.9292 18.6332 63.0192 22.6014 63.0192C23.9146 63.0192 25.2155 63.3447 26.3641 63.9605C26.9854 64.2938 27.7593 64.0601 28.0923 63.4386C28.4255 62.8174 28.1918 62.0436 27.5706 61.7103C26.0523 60.8962 24.334 60.4659 22.6014 60.4659C16.7908 60.4659 12.0638 65.1929 12.0638 71.0034C12.0638 71.7084 12.6352 72.28 13.3404 72.28H22.7147C23.4199 72.28 23.9913 71.7084 23.9913 71.0034C23.9913 70.2984 23.4198 69.727 22.7146 69.727Z" fill="black"/>
<path d="M22.6012 57.913C26.1225 57.913 28.9872 55.0482 28.9872 51.527C28.9872 48.0058 26.1225 45.1409 22.6012 45.1409C19.0798 45.1409 16.215 48.0056 16.215 51.527C16.215 55.0483 19.08 57.913 22.6012 57.913ZM22.6012 47.6941C24.7145 47.6941 26.434 49.4136 26.434 51.527C26.434 53.6405 24.7145 55.3598 22.6012 55.3598C20.4876 55.3598 18.7682 53.6403 18.7682 51.527C18.7683 49.4136 20.4876 47.6941 22.6012 47.6941Z" fill="black"/>
<path d="M40 58.3746C44.5338 58.3746 48.2223 54.6861 48.2223 50.1524C48.2223 45.6186 44.5338 41.9301 40 41.9301C35.4662 41.9301 31.7777 45.6186 31.7777 50.1524C31.7777 54.6861 35.4662 58.3746 40 58.3746ZM40 44.4832C43.126 44.4832 45.6691 47.0264 45.6691 50.1524C45.6691 53.2783 43.1261 55.8215 40 55.8215C36.8739 55.8215 34.3309 53.2783 34.3309 50.1524C34.3309 47.0264 36.8741 44.4832 40 44.4832Z" fill="black"/>
<path d="M40 60.9279C32.3544 60.9279 26.1343 67.1479 26.1343 74.7934C26.1343 75.4984 26.7057 76.07 27.4109 76.07H52.5889C53.2941 76.07 53.8655 75.4984 53.8655 74.7934C53.8655 67.1479 47.6454 60.9279 40 60.9279ZM28.7591 73.5168C29.3949 67.8776 34.1937 63.481 40 63.481C45.8063 63.481 50.6049 67.8776 51.2407 73.5168H28.7591Z" fill="black"/>
<path d="M78.7234 57.7234H75.6238C74.9639 39.0797 59.9203 24.0361 41.2766 23.3763V20.2766C41.2766 19.5716 40.7052 19 40 19C39.2948 19 38.7234 19.5716 38.7234 20.2766V23.3763C20.0797 24.0361 5.03608 39.0797 4.37617 57.7234H1.2766C0.571404 57.7234 0 58.295 0 59C0 59.705 0.571404 60.2766 1.2766 60.2766H4.37617C5.03608 78.9203 20.0797 93.9639 38.7234 94.6237V97.7234C38.7234 98.4284 39.2948 99 40 99C40.7052 99 41.2766 98.4284 41.2766 97.7234V94.6237C59.9203 93.9639 74.9639 78.9203 75.6238 60.2766H78.7234C79.4286 60.2766 80 59.705 80 59C80 58.295 79.4286 57.7234 78.7234 57.7234ZM41.2766 92.0688V89.0214C41.2766 88.3164 40.7052 87.7449 40 87.7449C39.2948 87.7449 38.7234 88.3164 38.7234 89.0214V92.0688C21.4877 91.4116 7.58826 77.5123 6.93106 60.2766H9.97855C10.6837 60.2766 11.2551 59.705 11.2551 59C11.2551 58.295 10.6837 57.7234 9.97855 57.7234H6.93106C7.58826 40.4877 21.4877 26.5884 38.7234 25.9312V28.9786C38.7234 29.6836 39.2948 30.2551 40 30.2551C40.7052 30.2551 41.2766 29.6836 41.2766 28.9786V25.9312C58.5123 26.5884 72.4116 40.4877 73.0689 57.7234H70.0214C69.3163 57.7234 68.7449 58.295 68.7449 59C68.7449 59.705 69.3163 60.2766 70.0214 60.2766H73.0689C72.4116 77.5123 58.5123 91.4116 41.2766 92.0688Z" fill="black"/>
</svg>
