<svg width="98" height="93" viewBox="0 0 98 93" fill="none" xmlns="http://www.w3.org/2000/svg">
<circle cx="68" cy="30" r="30" fill="#E9AE30"/>
<g clip-path="url(#clip0)">
<path d="M79.8621 20.921C79.6124 20.4284 79.073 20.1514 78.529 20.2365L71.7128 21.2873L72.7635 14.4711C72.8476 13.9256 72.5716 13.3877 72.0791 13.138C71.5865 12.8883 70.9894 12.9834 70.5991 13.3739L62.687 21.2861C62.4951 21.4781 62.3693 21.7261 62.3282 21.9943L61.0757 30.1191L56.5465 34.6483C50.3076 28.8559 42.2313 25.6791 33.6608 25.6791C24.6626 25.6791 16.2078 29.1785 9.85378 35.5325C3.4994 41.8868 0 50.3416 0 59.3397C0 68.3378 3.4994 76.7925 9.85344 83.1467C16.2077 89.5007 24.6625 92.9999 33.6604 92.9999C42.6584 92.9999 51.1133 89.5005 57.4674 83.1465C63.8214 76.7923 67.3208 68.3375 67.3208 59.3395C67.3208 52.1819 65.1087 45.3499 60.9237 39.5819C60.5096 39.011 59.711 38.884 59.1407 39.2983C58.57 39.7125 58.443 40.5106 58.8572 41.0813C62.7239 46.4107 64.7676 52.7242 64.7676 59.3397C64.7676 76.4922 50.8129 90.4468 33.6604 90.4468C16.5079 90.4468 2.55319 76.4922 2.55319 59.3397C2.55319 42.1872 16.5079 28.2325 33.6604 28.2325C41.5489 28.2325 48.984 31.1439 54.7396 36.4551L48.904 42.2907C44.7077 38.5331 39.3329 36.474 33.6602 36.474C21.0519 36.474 10.7944 46.7317 10.7944 59.3399C10.7944 71.948 21.0519 82.2057 33.6602 82.2057C46.2686 82.2057 56.5259 71.948 56.5259 59.3399C56.5259 55.1317 55.3753 51.0195 53.1986 47.4478C52.8316 46.8457 52.0461 46.6549 51.4441 47.0221C50.842 47.3889 50.6516 48.1746 51.0184 48.7766C52.951 51.948 53.9726 55.6008 53.9726 59.34C53.9726 70.5405 44.8604 79.6527 33.6601 79.6527C22.4596 79.6527 13.3474 70.5405 13.3474 59.34C13.3474 48.1395 22.4596 39.0274 33.6601 39.0274C38.6519 39.0274 43.3845 40.8211 47.0962 44.0985L41.2468 49.9479C39.1064 48.2129 36.4568 47.2687 33.6601 47.2687C27.0041 47.2687 21.5889 52.6839 21.5889 59.34C21.5889 65.9962 27.0041 71.4112 33.6601 71.4112C40.3162 71.4112 45.7312 65.9962 45.7312 59.34C45.7312 58.1542 45.5596 56.9821 45.2214 55.8561C45.0185 55.1809 44.3067 54.7976 43.6315 55.001C42.9562 55.2037 42.5733 55.9155 42.7763 56.5909C43.0429 57.4784 43.178 58.4032 43.178 59.34C43.178 64.5882 38.9082 68.858 33.6601 68.858C28.4119 68.858 24.1421 64.5882 24.1421 59.34C24.1421 54.0917 28.4119 49.8219 33.6601 49.8219C35.7734 49.8219 37.7792 50.5063 39.4279 51.7668L32.7573 58.4374C32.2587 58.9361 32.2587 59.7443 32.7573 60.2428C33.0065 60.492 33.3333 60.6166 33.6599 60.6166C33.9865 60.6166 34.3134 60.492 34.5625 60.2428L57.4628 37.3426C57.4706 37.3348 62.8803 31.9251 62.8803 31.9251L71.0051 30.6725C71.2733 30.6313 71.5213 30.5055 71.7133 30.3137L79.6255 22.4015C80.0165 22.0105 80.1116 21.4134 79.8621 20.921ZM64.7876 22.7962L69.6458 17.9382L68.9877 22.2069L64.1295 27.0651L64.7876 22.7962ZM70.2037 28.2125L65.9351 28.8706L70.7933 24.0124L75.0618 23.3543L70.2037 28.2125Z" fill="black"/>
</g>
<defs>
<clipPath id="clip0">
<rect width="80" height="80" fill="white" transform="translate(0 13)"/>
</clipPath>
</defs>
</svg>
