<svg width="100" height="93" viewBox="0 0 100 93" fill="none" xmlns="http://www.w3.org/2000/svg">
<circle cx="70" cy="30" r="30" fill="#E9AE30"/>
<g clip-path="url(#clip0)">
<path d="M61.8801 34.6351C48.5057 34.6351 43.7601 43.3285 43.7601 50.773V76.8223C43.7601 84.2669 48.5057 92.9602 61.8801 92.9602C75.2544 92.9602 80 84.2669 80 76.8223V50.7732C80 43.3285 75.2544 34.6351 61.8801 34.6351ZM77.4494 76.8225C77.4494 78.3884 77.1484 82.3838 74.361 85.6536C71.6706 88.8096 67.4713 90.4099 61.8801 90.4099C56.2888 90.4099 52.0896 88.8096 49.3991 85.6536C46.6116 82.3838 46.3108 78.3884 46.3108 76.8225V50.7732C46.3108 49.2073 46.6118 45.2119 49.3991 41.9421C52.0896 38.7861 56.2888 37.1858 61.8801 37.1858C67.4713 37.1858 71.6706 38.7861 74.361 41.9421C77.1485 45.2119 77.4494 49.2073 77.4494 50.7732V76.8225Z" fill="black"/>
<path d="M50.9071 15.5901C56.2543 15.5901 60.6047 19.9406 60.6047 25.2878V30.8091C60.6047 31.5136 61.1757 32.0845 61.8801 32.0845C62.5844 32.0845 63.1554 31.5136 63.1554 30.8091V25.2878C63.1554 18.534 57.6607 13.0395 50.9071 13.0395C44.1533 13.0395 38.6588 18.5049 38.6588 25.2227V59.1814C38.6588 64.4927 34.3085 68.8139 28.9611 68.8139C23.6137 68.8139 19.2635 64.4635 19.2635 59.1163V48.9699C28.5892 48.3133 35.9763 40.5173 35.9763 31.0275C35.9763 21.1088 27.9069 13.0393 17.9882 13.0393C8.06946 13.0393 0 21.1091 0 31.0278C0 40.5177 7.38708 48.3137 16.7128 48.9702V59.1166C16.7128 65.8704 22.2075 71.3649 28.9611 71.3649C35.7148 71.3649 41.2094 65.8995 41.2094 59.1817V25.2228C41.2094 19.9115 45.5597 15.5901 50.9071 15.5901ZM2.55067 31.0278C2.55067 22.5154 9.4759 15.5903 17.9882 15.5903C26.5004 15.5903 33.4257 22.5155 33.4257 31.0278C33.4257 39.5401 26.5004 46.4653 17.9882 46.4653C9.4759 46.4653 2.55067 39.5401 2.55067 31.0278Z" fill="black"/>
<path d="M17.9841 34.6838C17.4547 34.6838 17.024 34.253 17.024 33.7237C17.024 33.0192 16.453 32.4484 15.7487 32.4484C15.0443 32.4484 14.4733 33.0192 14.4733 33.7237C14.4733 35.2094 15.4023 36.4793 16.7087 36.9911V37.538C16.7087 38.2423 17.2794 38.8133 17.9839 38.8135C18.6884 38.8135 19.2592 38.2426 19.2594 37.5383V36.9913C20.5658 36.4794 21.495 35.2096 21.495 33.7237C21.495 31.2643 19.4924 30.3248 18.5299 29.8732C17.354 29.3216 17.0322 28.9903 17.0322 28.3321C17.0322 27.8027 17.4629 27.372 17.9922 27.372C18.5216 27.372 18.9523 27.8027 18.9523 28.3321C18.9523 29.0366 19.5233 29.6074 20.2276 29.6074C20.932 29.6074 21.503 29.0366 21.503 28.3321C21.503 26.8464 20.574 25.5765 19.2676 25.0647V24.518C19.2676 23.8135 18.6967 23.2425 17.9924 23.2425C17.2879 23.2425 16.7171 23.8133 16.7169 24.5177V25.0647C15.4104 25.5765 14.4813 26.8464 14.4813 28.3323C14.4813 30.7915 16.4839 31.7311 17.4464 32.1828C18.6222 32.7344 18.9441 33.0656 18.9441 33.7239C18.9441 34.2529 18.5134 34.6838 17.9841 34.6838Z" fill="black"/>
<path d="M30.875 31.0278C30.875 23.922 25.094 18.141 17.9882 18.141C15.0486 18.141 12.1715 19.1613 9.88692 21.0141C7.63723 22.8381 6.0502 25.3891 5.41815 28.1969C5.2634 28.8841 5.69515 29.5666 6.3823 29.7212C7.06962 29.8764 7.75201 29.4444 7.90658 28.7572C8.95864 24.0837 13.1985 20.6915 17.9882 20.6915C23.6876 20.6915 28.3243 25.3284 28.3243 31.0276C28.3243 36.7269 23.6876 41.3638 17.9882 41.3638C13.1985 41.3638 8.95864 37.9718 7.90658 33.2981C7.75184 32.6109 7.06911 32.1788 6.3823 32.3341C5.69515 32.4887 5.2634 33.1712 5.41815 33.8584C6.0502 36.6662 7.63723 39.2172 9.88675 41.0414C12.1713 42.8942 15.0484 43.9145 17.988 43.9145C25.094 43.9146 30.875 38.1336 30.875 31.0278Z" fill="black"/>
<path d="M63.1554 62.5224V58.0885C65.0507 57.5354 66.4398 55.7832 66.4398 53.7116V47.6583C66.4398 45.5867 65.0507 43.8345 63.1554 43.2814V41.0118C63.1554 40.3073 62.5844 39.7365 61.8801 39.7365C61.1757 39.7365 60.6047 40.3073 60.6047 41.0118V43.2814C58.7094 43.8345 57.3203 45.5867 57.3203 47.6583V53.7116C57.3203 55.7832 58.7094 57.5354 60.6047 58.0885V62.5224H50.1368C49.4325 62.5224 48.8615 63.0933 48.8615 63.7978C48.8615 64.5022 49.4325 65.0731 50.1368 65.0731H73.6233C74.3277 65.0731 74.8987 64.5022 74.8987 63.7978C74.8987 63.0933 74.3277 62.5224 73.6233 62.5224H63.1554ZM59.8708 53.7116V47.6583C59.8708 46.5505 60.772 45.6492 61.8799 45.6492C62.9877 45.6492 63.889 46.5506 63.889 47.6583V53.7116C63.889 54.8194 62.9877 55.7206 61.8799 55.7206C60.772 55.7206 59.8708 54.8194 59.8708 53.7116Z" fill="black"/>
</g>
<defs>
<clipPath id="clip0">
<rect width="80" height="80" fill="white" transform="translate(0 13)"/>
</clipPath>
</defs>
</svg>
