<svg width="30" height="30" viewBox="0 0 30 30" fill="none" xmlns="http://www.w3.org/2000/svg">
<path d="M22.6172 3.10547C22.6172 3.42911 22.3549 3.69141 22.0312 3.69141C21.7076 3.69141 21.4453 3.42911 21.4453 3.10547C21.4453 2.78183 21.7076 2.51953 22.0312 2.51953C22.3549 2.51953 22.6172 2.78183 22.6172 3.10547Z" fill="#232323"/>
<path d="M22.0312 6.21094H7.96875C6.3533 6.21094 5.03906 7.52518 5.03906 9.14062V23.2031C5.03906 24.8186 6.3533 26.1328 7.96875 26.1328H22.0312C23.6467 26.1328 24.9609 24.8186 24.9609 23.2031V9.14062C24.9609 7.52518 23.6467 6.21094 22.0312 6.21094ZM23.7891 23.2031C23.7891 24.1724 23.0006 24.9609 22.0312 24.9609H7.96875C6.99944 24.9609 6.21094 24.1724 6.21094 23.2031V9.14062C6.21094 8.17131 6.99944 7.38281 7.96875 7.38281H22.0312C23.0006 7.38281 23.7891 8.17131 23.7891 9.14062V23.2031Z" fill="#232323"/>
<path d="M15 10.8984C12.0923 10.8984 9.72656 13.2642 9.72656 16.1719C9.72656 19.0796 12.0923 21.4453 15 21.4453C17.9077 21.4453 20.2734 19.0796 20.2734 16.1719C20.2734 13.2642 17.9077 10.8984 15 10.8984ZM15 20.2734C12.7384 20.2734 10.8984 18.4335 10.8984 16.1719C10.8984 13.9103 12.7384 12.0703 15 12.0703C17.2616 12.0703 19.1016 13.9103 19.1016 16.1719C19.1016 18.4335 17.2616 20.2734 15 20.2734Z" fill="#232323"/>
<path d="M20.8594 8.55469C19.8901 8.55469 19.1016 9.34319 19.1016 10.3125C19.1016 11.2818 19.8901 12.0703 20.8594 12.0703C21.8287 12.0703 22.6172 11.2818 22.6172 10.3125C22.6172 9.34319 21.8287 8.55469 20.8594 8.55469ZM20.8594 10.8984C20.5362 10.8984 20.2734 10.6357 20.2734 10.3125C20.2734 9.98932 20.5362 9.72656 20.8594 9.72656C21.1826 9.72656 21.4453 9.98932 21.4453 10.3125C21.4453 10.6357 21.1826 10.8984 20.8594 10.8984Z" fill="#232323"/>
<path d="M27.0703 0H2.92969C1.31424 0 0 1.31424 0 2.92969V27.0703C0 28.6858 1.31424 30 2.92969 30H27.0703C28.6858 30 30 28.6858 30 27.0703V2.92969C30 1.31424 28.6858 0 27.0703 0ZM28.8281 27.0703C28.8281 28.0396 28.0396 28.8281 27.0703 28.8281H2.92969C1.96037 28.8281 1.17188 28.0396 1.17188 27.0703V2.92969C1.17188 1.96037 1.96037 1.17188 2.92969 1.17188H27.0703C28.0396 1.17188 28.8281 1.96037 28.8281 2.92969V27.0703Z" fill="#232323"/>
<path d="M7.96875 3.69141H19.6875C20.0111 3.69141 20.2734 3.42911 20.2734 3.10547C20.2734 2.78183 20.0111 2.51953 19.6875 2.51953H7.96875C7.64511 2.51953 7.38281 2.78183 7.38281 3.10547C7.38281 3.42911 7.64511 3.69141 7.96875 3.69141Z" fill="#232323"/>
</svg>
