<svg width="30" height="30" viewBox="0 0 30 30" fill="none" xmlns="http://www.w3.org/2000/svg">
<path d="M22.6172 3.10547C22.6172 3.42911 22.3549 3.69141 22.0312 3.69141C21.7076 3.69141 21.4453 3.42911 21.4453 3.10547C21.4453 2.78183 21.7076 2.51953 22.0312 2.51953C22.3549 2.51953 22.6172 2.78183 22.6172 3.10547Z" fill="#232323"/>
<path d="M23.2832 8.30193L5.99808 15.0402C5.77309 15.1279 5.62477 15.3449 5.625 15.5866C5.62523 15.828 5.77354 16.0448 5.99876 16.1322L9.36905 17.4416C9.75494 18.4062 11.5034 22.7789 11.5311 22.8449C11.6936 23.2294 12.1932 23.3239 12.4846 23.0316L15.095 20.4212L19.9088 24.2479C20.2457 24.5157 20.7539 24.3404 20.8463 23.9128L24.069 8.97141C24.1649 8.52372 23.7252 8.13004 23.2832 8.30193ZM17.1112 11.9656L9.76433 16.338L7.82661 15.5852L17.1112 11.9656ZM18.8429 12.2989L12.8474 17.7676C12.7695 17.8388 12.7055 17.9397 12.6764 18.0486C12.6762 18.0491 12.6759 18.0498 12.6759 18.0502L11.9575 20.7577L10.5485 17.235L18.8429 12.2989ZM13.5789 19.2164L14.1717 19.6874L13.1948 20.6643L13.5789 19.2164ZM19.8994 22.7435C18.7809 21.8543 15.1822 18.9941 14.1451 18.1699L22.5368 10.5157L19.8994 22.7435Z" fill="#232323"/>
<path d="M27.0703 0H2.92969C1.31424 0 0 1.31424 0 2.92969V27.0703C0 28.6858 1.31424 30 2.92969 30H27.0703C28.6858 30 30 28.6858 30 27.0703V2.92969C30 1.31424 28.6858 0 27.0703 0ZM28.8281 27.0703C28.8281 28.0396 28.0396 28.8281 27.0703 28.8281H2.92969C1.96037 28.8281 1.17188 28.0396 1.17188 27.0703V2.92969C1.17188 1.96037 1.96037 1.17188 2.92969 1.17188H27.0703C28.0396 1.17188 28.8281 1.96037 28.8281 2.92969V27.0703Z" fill="#232323"/>
<path d="M7.96875 3.69141H19.6875C20.0111 3.69141 20.2734 3.42911 20.2734 3.10547C20.2734 2.78183 20.0111 2.51953 19.6875 2.51953H7.96875C7.64511 2.51953 7.38281 2.78183 7.38281 3.10547C7.38281 3.42911 7.64511 3.69141 7.96875 3.69141Z" fill="#232323"/>
</svg>
